<svg xmlns="http://www.w3.org/2000/svg" width="72" height="96" fill="none">
    <g clip-path="url(#account-stats-light_svg__a)">
        <path fill="var(--textPrimary)"
              d="M88.312 9.258C87.512 8.695 81.002 0 68.18 0H27.82C14.997 0 8.478 8.7 7.688 9.258 2.731 14.216 0 20.808 0 27.82v40.36c0 12.823 8.7 19.342 9.258 20.132C14.216 93.27 20.808 96 27.82 96h40.36c7.012 0 13.604-2.73 18.562-7.688.563-.8 9.258-7.31 9.258-20.132V27.82c0-7.012-2.73-13.604-7.688-18.562ZM68.18 88.5H27.82a18.617 18.617 0 0 1-12.784-5.033c16.2-22.634 49.756-22.595 65.927 0A18.616 18.616 0 0 1 68.18 88.5ZM29.625 40.625c0-10.132 8.243-18.375 18.375-18.375s18.375 8.243 18.375 18.375S58.132 59 48 59s-18.375-8.243-18.375-18.375ZM88.5 68.18c0 3.371-.883 6.606-2.541 9.441-5.716-7.37-13.54-13.067-22.675-16.129C69.7 56.78 73.875 49.18 73.875 40.625 73.875 26.358 62.267 14.75 48 14.75S22.125 26.358 22.125 40.625c0 8.555 4.174 16.154 10.591 20.867-9.129 3.06-16.955 8.754-22.675 16.13A18.638 18.638 0 0 1 7.5 68.18V27.82c0-5.009 1.95-9.717 5.492-13.258.794-.571 5.433-7.062 14.828-7.062h40.36c9.446 0 14.007 6.47 14.828 7.062A18.627 18.627 0 0 1 88.5 27.82v40.36Z"></path>
    </g>
    <defs>
        <clipPath id="account-stats-light_svg__a">
            <path fill="#fff" d="M0 0h96v96H0z"></path>
        </clipPath>
    </defs>
</svg>