<svg xmlns="http://www.w3.org/2000/svg" width="72" height="96" fill="none">
    <g fill="var(--textPrimary)">
        <path d="M48 0C21.508 0 0 21.508 0 48s21.508 48 48 48 48-21.508 48-48S74.492 0 48 0Zm0 7.384c22.417 0 40.616 18.2 40.616 40.616 0 22.417-18.2 40.616-40.616 40.616S7.384 70.416 7.384 48 25.584 7.384 48 7.384Z"></path>
        <path d="M29.06 45.877c11.946-5.205 19.912-8.636 23.898-10.294C64.338 30.85 66.703 30.028 68.244 30c.34-.006 1.097.078 1.588.477.728.59.733 1.874.652 2.723-.617 6.48-3.286 22.204-4.643 29.462-.575 3.07-1.706 4.1-2.8 4.201-2.38.22-4.188-1.573-6.492-3.083-3.607-2.365-5.645-3.837-9.146-6.144-4.046-2.666-1.423-4.131.883-6.526.603-.627 11.088-10.164 11.291-11.029.026-.108.05-.512-.19-.725-.24-.212-.593-.14-.849-.082-.361.082-6.123 3.89-17.285 11.425-1.635 1.123-3.117 1.67-4.444 1.642-1.463-.032-4.277-.828-6.37-1.508-2.566-.834-4.606-1.275-4.428-2.692.092-.738 1.108-1.492 3.048-2.264Z"></path>
    </g>
</svg>