<svg xmlns="http://www.w3.org/2000/svg" width="72" height="96" fill="none">
    <g clip-path="url(#transaction-stats-light_svg__a)">
        <path fill="var(--textPrimary)" fill-rule="evenodd"
              d="M48 0C21.508 0 0 21.508 0 48s21.508 48 48 48 48-21.508 48-48S74.492 0 48 0Zm0 7.384c22.417 0 40.616 18.2 40.616 40.616 0 22.417-18.2 40.616-40.616 40.616S7.384 70.416 7.384 48 25.584 7.384 48 7.384Zm9.548 49.847H33.23a3.692 3.692 0 0 1-3.693-3.692l-.018-2.223-.002-.016c-.082-.91-.44-1.57-.903-2.048a3.681 3.681 0 0 0-2.579-1.247l-.19-.005-.158.018c-.707.097-3.534.671-3.534 3.697v1.824A11.076 11.076 0 0 0 33.23 64.616h24.317l-4.14 4.14a3.694 3.694 0 0 0 0 5.221 3.694 3.694 0 0 0 5.221 0l10.443-10.443a3.692 3.692 0 0 0 0-5.221L58.63 47.869a3.694 3.694 0 0 0-5.221 0 3.694 3.694 0 0 0 0 5.221l4.14 4.14ZM38.453 38.769h24.316c.98 0 1.919.39 2.612 1.081a3.696 3.696 0 0 1 1.08 2.612l.02 2.223.002.014c.08.912.44 1.572.903 2.05a3.68 3.68 0 0 0 2.578 1.246l.19.005.159-.017c.706-.097 3.533-.672 3.533-3.697v-1.824A11.078 11.078 0 0 0 62.77 31.385H38.453l4.14-4.141a3.694 3.694 0 0 0 0-5.221 3.695 3.695 0 0 0-5.222 0L26.928 32.466a3.693 3.693 0 0 0 0 5.222L37.37 48.132a3.695 3.695 0 0 0 5.222 0 3.695 3.695 0 0 0 0-5.222l-4.14-4.14Z"
              clip-rule="evenodd"></path>
    </g>
    <defs>
        <clipPath id="transaction-stats-light_svg__a">
            <path fill="#000" d="M0 0h96v96H0z"></path>
        </clipPath>
    </defs>
</svg>