<svg width="16" height="16" viewBox="0 0 16 16" fill="none" xmlns="http://www.w3.org/2000/svg">
<path fill-rule="evenodd" clip-rule="evenodd" d="M4.63569 3.21983C3.77767 3.66927 3.5 4.15946 3.5 4.5C3.5 4.84054 3.77767 5.33073 4.63569 5.78017C5.45819 6.211 6.64642 6.5 8 6.5C9.35358 6.5 10.5418 6.211 11.3643 5.78017C12.2223 5.33073 12.5 4.84054 12.5 4.5C12.5 4.15946 12.2223 3.66927 11.3643 3.21983C10.5418 2.789 9.35358 2.5 8 2.5C6.64642 2.5 5.45819 2.789 4.63569 3.21983ZM12.5 6.85168C12.358 6.94438 12.2106 7.03018 12.0603 7.10892C10.9827 7.67339 9.54592 8 8 8C6.45408 8 5.01731 7.67339 3.93968 7.10892C3.78936 7.03018 3.64205 6.94438 3.5 6.85168V8C3.5 8.34054 3.77767 8.83073 4.63569 9.28017C5.45819 9.711 6.64642 10 8 10C9.35358 10 10.5418 9.711 11.3643 9.28017C12.2223 8.83073 12.5 8.34054 12.5 8V6.85168ZM14 8V4.5C14 3.32176 13.1024 2.43695 12.0603 1.89108C10.9827 1.32661 9.54592 1 8 1C6.45408 1 5.01731 1.32661 3.93968 1.89108C2.89758 2.43695 2 3.32176 2 4.5V8V11.5C2 12.6782 2.89758 13.5631 3.93968 14.1089C5.01731 14.6734 6.45408 15 8 15C9.54592 15 10.9827 14.6734 12.0603 14.1089C13.1024 13.5631 14 12.6782 14 11.5V8ZM12.5 10.3517C12.358 10.4444 12.2106 10.5302 12.0603 10.6089C10.9827 11.1734 9.54592 11.5 8 11.5C6.45408 11.5 5.01731 11.1734 3.93968 10.6089C3.78936 10.5302 3.64205 10.4444 3.5 10.3517V11.5C3.5 11.8405 3.77767 12.3307 4.63569 12.7802C5.45819 13.211 6.64642 13.5 8 13.5C9.35358 13.5 10.5418 13.211 11.3643 12.7802C12.2223 12.3307 12.5 11.8405 12.5 11.5V10.3517Z" fill="black"/>
</svg>
