<svg width="16" height="16" viewBox="0 0 16 16" fill="none" xmlns="http://www.w3.org/2000/svg">
<path fill-rule="evenodd" clip-rule="evenodd" d="M7.99998 5.00001C6.34313 5.00001 4.99998 6.34316 4.99998 8.00001C4.99998 9.65687 6.34313 11 7.99998 11C9.65684 11 11 9.65687 11 8.00001C11 6.34316 9.65684 5.00001 7.99998 5.00001ZM6.49998 8.00001C6.49998 7.17159 7.17156 6.50001 7.99998 6.50001C8.82841 6.50001 9.49998 7.17159 9.49998 8.00001C9.49998 8.82844 8.82841 9.50002 7.99998 9.50002C7.17156 9.50002 6.49998 8.82844 6.49998 8.00001Z" fill="black"/>
<path fill-rule="evenodd" clip-rule="evenodd" d="M6.12282 0.99996C5.54094 0.999502 5.08378 0.999141 4.66215 1.13797C4.29149 1.26002 3.95104 1.45956 3.66345 1.72334C3.33631 2.02337 3.11325 2.42243 2.82934 2.93034L1.02317 6.15563C0.750371 6.6419 0.535962 7.0241 0.449345 7.44237C0.373167 7.81023 0.373167 8.1898 0.449345 8.55766C0.535962 8.97593 0.750372 9.35812 1.02317 9.8444L2.82934 13.0697C3.11325 13.5776 3.33631 13.9767 3.66345 14.2767C3.95104 14.5405 4.29149 14.74 4.66215 14.8621C5.08378 15.0009 5.54094 15.0005 6.12282 15.0001H9.87714C10.459 15.0005 10.9162 15.0009 11.3378 14.8621C11.7085 14.74 12.0489 14.5405 12.3365 14.2767C12.6637 13.9766 12.8867 13.5776 13.1706 13.0697L14.9768 9.84438C15.2496 9.35811 15.464 8.97592 15.5506 8.55765C15.6268 8.1898 15.6268 7.81023 15.5506 7.44238C15.464 7.02411 15.2496 6.64192 14.9768 6.15565L13.1706 2.93036C12.8867 2.42244 12.6637 2.02338 12.3365 1.72334C12.0489 1.45957 11.7085 1.26002 11.3378 1.13797C10.9162 0.999142 10.459 0.999502 9.87714 0.99996H6.12282ZM5.13129 2.56272C5.29457 2.50896 5.49141 2.50001 6.22557 2.50001H9.77438C10.5086 2.50001 10.7054 2.50896 10.8687 2.56272C11.0372 2.6182 11.1919 2.7089 11.3226 2.8288C11.4493 2.945 11.5533 3.11237 11.912 3.75294L13.62 6.80294C13.9634 7.41613 14.0482 7.58446 14.0817 7.74654C14.1164 7.91375 14.1164 8.08628 14.0817 8.25349C14.0482 8.41557 13.9634 8.5839 13.62 9.19709L11.912 12.2471C11.5533 12.8877 11.4493 13.055 11.3226 13.1712C11.1919 13.2911 11.0372 13.3818 10.8687 13.4373C10.7054 13.4911 10.5086 13.5 9.77438 13.5H6.22557C5.4914 13.5 5.29457 13.4911 5.13129 13.4373C4.9628 13.3818 4.80805 13.2911 4.67733 13.1712C4.55064 13.055 4.44666 12.8877 4.08794 12.2471L2.37993 9.1971C2.03654 8.5839 1.95175 8.41558 1.91818 8.25349C1.88356 8.08628 1.88356 7.91375 1.91818 7.74654C1.95175 7.58445 2.03654 7.41612 2.37993 6.80293L4.08794 3.75293C4.44666 3.11236 4.55064 2.94499 4.67733 2.8288C4.80805 2.7089 4.9628 2.6182 5.13129 2.56272Z" fill="black"/>
</svg>
