<svg width="24" height="24" viewBox="0 0 24 24" fill="none" xmlns="http://www.w3.org/2000/svg">
<path fill-rule="evenodd" clip-rule="evenodd" d="M8.6682 4.75L15.3314 4.75C15.7829 4.75 16.1993 4.99353 16.4208 5.38706L19.7966 11.3871C20.0107 11.7676 20.0107 12.2324 19.7966 12.6129L16.4208 18.6129C16.1993 19.0065 15.7829 19.25 15.3314 19.25H8.6682C8.21666 19.25 7.80022 19.0065 7.5788 18.6129L4.20296 12.6129C3.98883 12.2324 3.98883 11.7676 4.20295 11.3871L7.5788 5.38706C7.80022 4.99353 8.21666 4.75 8.6682 4.75ZM15.3314 3.25H8.6682C7.67481 3.25 6.75863 3.78576 6.27152 4.65153L2.89567 10.6515C2.42459 11.4888 2.42459 12.5112 2.89567 13.3485L6.27152 19.3485C6.75863 20.2142 7.67481 20.75 8.6682 20.75H15.3314C16.3248 20.75 17.2409 20.2142 17.728 19.3485L21.1039 13.3485C21.575 12.5112 21.575 11.4888 21.1039 10.6515L17.728 4.65152C17.2409 3.78576 16.3248 3.25 15.3314 3.25ZM13.5 12C13.5 12.8284 12.8284 13.5 12 13.5C11.1715 13.5 10.5 12.8284 10.5 12C10.5 11.1716 11.1715 10.5 12 10.5C12.8284 10.5 13.5 11.1716 13.5 12ZM15 12C15 13.6569 13.6568 15 12 15C10.3431 15 8.99997 13.6569 8.99997 12C8.99997 10.3431 10.3431 9 12 9C13.6568 9 15 10.3431 15 12Z" fill="black"/>
</svg>
