<svg width="24" height="24" viewBox="0 0 24 24" fill="none" xmlns="http://www.w3.org/2000/svg">
<mask id="path-1-inside-1_3334_82152" fill="white">
<path fill-rule="evenodd" clip-rule="evenodd" d="M19.3691 15.1191C19.6543 14.4462 19.7969 14.1097 19.7392 13.8105C19.6823 13.5157 19.5642 13.3373 19.3149 13.1699C19.062 13 18.3747 13 17 13C14.2386 13 12 10.7614 12 8C12 7.11184 12.2316 6.27776 12.6376 5.55486C12.995 4.91867 12.7297 4 12 4C7.58172 4 4 7.58172 4 12C4 16.4183 7.58172 20 12 20C15.3117 20 18.1534 17.9877 19.3691 15.1191Z"/>
</mask>
<path d="M19.3149 13.1699L18.4785 14.4151L19.3149 13.1699ZM19.7392 13.8105L21.212 13.5263L19.7392 13.8105ZM17 11.5C15.067 11.5 13.5 9.933 13.5 8H10.5C10.5 11.5899 13.4101 14.5 17 14.5V11.5ZM13.5 8C13.5 7.37574 13.6621 6.79386 13.9454 6.28947L11.3298 4.82025C10.801 5.76166 10.5 6.84793 10.5 8H13.5ZM5.5 12C5.5 8.41015 8.41015 5.5 12 5.5V2.5C6.75329 2.5 2.5 6.75329 2.5 12H5.5ZM12 18.5C8.41015 18.5 5.5 15.5899 5.5 12H2.5C2.5 17.2467 6.75329 21.5 12 21.5V18.5ZM17.988 14.5338C16.999 16.8675 14.6884 18.5 12 18.5V21.5C15.935 21.5 19.3079 19.1079 20.7502 15.7044L17.988 14.5338ZM13.9454 6.28947C14.34 5.58699 14.3974 4.74185 14.1355 4.02449C13.8562 3.25944 13.1284 2.5 12 2.5V5.5C11.8486 5.5 11.6743 5.44587 11.5293 5.33161C11.3974 5.2277 11.3399 5.11485 11.3174 5.05323C11.2813 4.95425 11.2926 4.88654 11.3298 4.82025L13.9454 6.28947ZM17 14.5C17.7069 14.5 18.1709 14.5006 18.4934 14.5188C18.6523 14.5278 18.7269 14.5389 18.7504 14.5435C18.7911 14.5515 18.656 14.5343 18.4785 14.4151L20.1513 11.9247C19.8474 11.7205 19.5316 11.6396 19.3293 11.5999C19.1098 11.5567 18.8792 11.5359 18.6629 11.5236C18.2348 11.4994 17.6677 11.5 17 11.5V14.5ZM20.7502 15.7044C20.8808 15.3962 21.0235 15.0641 21.1148 14.7709C21.2121 14.4589 21.3082 14.0246 21.212 13.5263L18.2664 14.0947C18.2279 13.8956 18.2816 13.7791 18.2507 13.8784C18.2359 13.9259 18.2099 13.9982 18.1635 14.1136C18.1173 14.2287 18.061 14.3618 17.988 14.5338L20.7502 15.7044ZM18.4785 14.4151C18.4869 14.4207 18.418 14.3754 18.3486 14.2707C18.2793 14.166 18.2645 14.0848 18.2664 14.0947L21.212 13.5263C21.157 13.2414 21.0547 12.9236 20.8498 12.6142C20.6448 12.3047 20.3922 12.0865 20.1513 11.9247L18.4785 14.4151Z" fill="black" mask="url(#path-1-inside-1_3334_82152)"/>
</svg>
