<svg width="16" height="16" viewBox="0 0 16 16" fill="none" xmlns="http://www.w3.org/2000/svg">
<path fill-rule="evenodd" clip-rule="evenodd" d="M11.6935 7.09677C11.6935 9.6355 9.6355 11.6935 7.09677 11.6935C4.55805 11.6935 2.5 9.6355 2.5 7.09677C2.5 4.55805 4.55805 2.5 7.09677 2.5C9.6355 2.5 11.6935 4.55805 11.6935 7.09677ZM10.845 11.9056C9.81101 12.7127 8.51005 13.1935 7.09677 13.1935C3.72962 13.1935 1 10.4639 1 7.09677C1 3.72962 3.72962 1 7.09677 1C10.4639 1 13.1935 3.72962 13.1935 7.09677C13.1935 8.51005 12.7127 9.81101 11.9056 10.845L14.3771 13.3164C14.67 13.6093 14.67 14.0842 14.3771 14.3771C14.0842 14.67 13.6093 14.67 13.3164 14.3771L10.845 11.9056Z" fill="black"/>
</svg>
