<svg width="16" height="16" viewBox="0 0 16 16" fill="none" xmlns="http://www.w3.org/2000/svg">
<path fill-rule="evenodd" clip-rule="evenodd" d="M8 12.0004C7.16434 12.6281 6.12561 13 5 13C2.23858 13 0 10.7614 0 8C0 5.23858 2.23858 3 5 3C6.12561 3 7.16434 3.37195 8 3.99964C8.83566 3.37195 9.87439 3 11 3C13.7614 3 16 5.23858 16 8C16 10.7614 13.7614 13 11 13C9.87439 13 8.83566 12.6281 8 12.0004ZM6.9374 10.9153C6.34744 10.0946 6 9.08789 6 8C6 6.91211 6.34744 5.90537 6.9374 5.08468C6.38266 4.71528 5.71647 4.5 5 4.5C3.067 4.5 1.5 6.067 1.5 8C1.5 9.933 3.067 11.5 5 11.5C5.71647 11.5 6.38265 11.2847 6.9374 10.9153ZM14.5 8C14.5 9.933 12.933 11.5 11 11.5C9.067 11.5 7.5 9.933 7.5 8C7.5 6.067 9.067 4.5 11 4.5C12.933 4.5 14.5 6.067 14.5 8Z" fill="black"/>
</svg>
