<svg width="16" height="16" viewBox="0 0 16 16" fill="none" xmlns="http://www.w3.org/2000/svg">
<path fill-rule="evenodd" clip-rule="evenodd" d="M3.21967 3.21967C3.51256 2.92678 3.98744 2.92678 4.28033 3.21967L8 6.93934L11.7197 3.21967C12.0126 2.92678 12.4874 2.92678 12.7803 3.21967C13.0732 3.51256 13.0732 3.98744 12.7803 4.28033L9.06066 8L12.7803 11.7197C13.0732 12.0126 13.0732 12.4874 12.7803 12.7803C12.4874 13.0732 12.0126 13.0732 11.7197 12.7803L8 9.06066L4.28033 12.7803C3.98744 13.0732 3.51256 13.0732 3.21967 12.7803C2.92678 12.4874 2.92678 12.0126 3.21967 11.7197L6.93934 8L3.21967 4.28033C2.92678 3.98744 2.92678 3.51256 3.21967 3.21967Z" fill="black"/>
</svg>
