<?xml version="1.0" standalone="no"?>
<!DOCTYPE svg PUBLIC "-//W3C//DTD SVG 1.1//EN" "http://www.w3.org/Graphics/SVG/1.1/DTD/svg11.dtd" >
<svg xmlns="http://www.w3.org/2000/svg">
<metadata>Generated by IcoMoon</metadata>
<defs>
<font id="icomoon" horiz-adv-x="1024">
<font-face units-per-em="1024" ascent="960" descent="-64" />
<missing-glyph horiz-adv-x="1024" />
<glyph unicode="&#x20;" horiz-adv-x="512" d="" />
<glyph unicode="&#xe900;" glyph-name="ic-subscription-96" d="M375.467 858.667c-36.108 0-62.226-0.012-82.767-1.691-20.355-1.663-33.821-4.882-44.88-10.516-21.074-10.738-38.208-27.872-48.946-48.946-5.634-11.059-8.853-24.525-10.516-44.88-1.678-20.541-1.691-46.659-1.691-82.767v-443.733c0-36.108 0.013-62.226 1.691-82.767 1.663-20.355 4.882-33.821 10.516-44.88 10.738-21.074 27.872-38.208 48.946-48.946 11.059-5.634 24.525-8.853 44.88-10.516 20.541-1.678 46.659-1.691 82.767-1.691h273.067c36.108 0 62.226 0.013 82.767 1.691 20.355 1.663 33.821 4.882 44.88 10.516 21.074 10.738 38.208 27.872 48.946 48.946 5.634 11.059 8.853 24.525 10.516 44.88 1.678 20.541 1.691 46.659 1.691 82.767v443.733c0 36.108-0.013 62.226-1.691 82.767-1.663 20.355-4.882 33.821-10.516 44.88-10.738 21.074-27.872 38.208-48.946 48.946-11.059 5.634-24.525 8.853-44.88 10.516-20.541 1.678-46.659 1.691-82.767 1.691h-273.067zM170.667 669.867c0 71.686 0 107.53 13.951 134.911 12.272 24.084 31.854 43.666 55.938 55.938 27.381 13.951 63.225 13.951 134.911 13.951h273.067c71.686 0 107.53 0 134.911-13.951 24.084-12.272 43.666-31.854 55.938-55.938 13.951-27.381 13.951-63.225 13.951-134.911v-443.733c0-71.686 0-107.53-13.951-134.911-12.272-24.084-31.854-43.666-55.938-55.938-27.381-13.951-63.225-13.951-134.911-13.951h-273.067c-71.686 0-107.53 0-134.911 13.951-24.084 12.272-43.666 31.854-55.938 55.938-13.951 27.381-13.951 63.225-13.951 134.911v443.733zM476.253 471.445c8.407-7.883 14.041-13.147 18.709-16.876 4.517-3.607 7.12-4.928 9.125-5.551 5.153-1.601 10.672-1.601 15.825 0 2.005 0.623 4.608 1.943 9.125 5.551 4.669 3.729 10.302 8.993 18.709 16.876l86.846 81.418c14.353 13.456 18.028 17.29 19.888 21.312 1.923 4.158 2.743 8.74 2.381 13.307-0.351 4.419-2.469 9.289-11.267 26.885l-22.37 44.74c-7.369 14.737-9.532 18.597-12.268 21.277-2.825 2.766-6.227 4.869-9.965 6.159-3.62 1.248-8.041 1.457-24.516 1.457h-128.951c-16.476 0-20.896-0.209-24.516-1.457-3.738-1.29-7.14-3.393-9.965-6.159-2.736-2.679-4.899-6.54-12.268-21.277l-22.37-44.739c-8.798-17.598-10.916-22.467-11.267-26.886-0.363-4.566 0.458-9.149 2.381-13.307 1.86-4.022 5.535-7.856 19.888-21.312l86.846-81.418zM386.465 666.263c6.849 13.698 10.274 20.547 15.383 25.552 4.517 4.425 9.964 7.791 15.942 9.853 6.761 2.332 14.418 2.332 29.733 2.332h128.951c15.315 0 22.973 0 29.733-2.332 5.979-2.062 11.425-5.428 15.942-9.853 5.109-5.005 8.534-11.854 15.383-25.552v0l22.371-44.742c8.165-16.331 12.247-24.496 12.906-32.772 0.58-7.307-0.732-14.639-3.809-21.291-3.486-7.536-10.146-13.78-23.467-26.268l-86.846-81.419c-16.443-15.414-24.663-23.122-34.030-26.032-8.245-2.562-17.075-2.562-25.321 0-9.366 2.91-17.587 10.618-34.030 26.032l-86.846 81.419c-13.321 12.487-19.981 18.732-23.467 26.268-3.077 6.652-4.389 13.984-3.809 21.291 0.658 8.276 4.74 16.443 12.907 32.774l22.37 44.74zM362.667 280c0 4.418 3.582 8 8 8h282.667c4.418 0 8-3.582 8-8s-3.582-8-8-8h-282.667c-4.418 0-8 3.582-8 8zM413.333 186.667c-4.418 0-8-3.582-8-8s3.582-8 8-8h197.333c4.418 0 8 3.582 8 8s-3.582 8-8 8h-197.333z" />
<glyph unicode="&#xe901;" glyph-name="ic-create-96" d="M426.667 858.667c-60.003 0-104.043-0.012-138.814-2.853-34.585-2.826-58.588-8.369-78.773-18.655-37.131-18.918-67.319-49.107-86.238-86.238-10.286-20.186-15.829-44.189-18.655-78.773-2.841-34.771-2.853-78.811-2.853-138.814v-170.667c0-60.003 0.012-104.043 2.853-138.814 2.826-34.585 8.369-58.588 18.655-78.773 18.918-37.131 49.107-67.319 86.238-86.238 20.186-10.286 44.189-15.829 78.773-18.655 34.771-2.841 78.811-2.853 138.814-2.853h170.667c60.003 0 104.043 0.013 138.814 2.853 34.585 2.826 58.588 8.369 78.773 18.655 37.131 18.918 67.319 49.107 86.238 86.238 10.286 20.186 15.829 44.189 18.655 78.773 2.841 34.771 2.853 78.811 2.853 138.814v170.667c0 60.003-0.013 104.043-2.853 138.814-2.826 34.585-8.369 58.588-18.655 78.773-18.918 37.131-49.107 67.319-86.238 86.238-20.186 10.286-44.189 15.829-78.773 18.655-34.771 2.841-78.811 2.853-138.814 2.853h-170.667zM85.333 533.333c0 119.478 0 179.217 23.252 224.851 20.452 40.142 53.088 72.778 93.23 93.23 45.634 23.252 105.374 23.252 224.851 23.252h170.667c119.477 0 179.217 0 224.851-23.252 40.141-20.452 72.778-53.088 93.23-93.23 23.252-45.634 23.252-105.374 23.252-224.851v-170.667c0-119.477 0-179.217-23.252-224.851-20.452-40.141-53.089-72.778-93.23-93.23-45.634-23.252-105.374-23.252-224.851-23.252h-170.667c-119.478 0-179.217 0-224.851 23.252-40.142 20.452-72.778 53.089-93.23 93.23-23.252 45.634-23.252 105.374-23.252 224.851v170.667zM520 624c0 4.418-3.582 8-8 8s-8-3.582-8-8v-168h-168c-4.418 0-8-3.582-8-8s3.582-8 8-8h168v-168c0-4.418 3.582-8 8-8s8 3.582 8 8v168h168c4.418 0 8 3.582 8 8s-3.582 8-8 8h-168v168z" />
<glyph unicode="&#xe902;" glyph-name="ic-done-circle-56" d="M900.414 465.655c0-214.515-173.899-388.414-388.414-388.414s-388.414 173.899-388.414 388.414c0 214.515 173.899 388.414 388.414 388.414s388.414-173.899 388.414-388.414z" />
<glyph unicode="&#xe903;" glyph-name="ic-user-56" d="M279.986 187.86c65.275 47.046 145.408 74.761 232.015 74.761s166.739-27.715 232.012-74.761c-62.819-52.522-143.725-84.136-232.014-84.136s-169.193 31.612-232.014 84.136zM259.889 205.974c-67.734 65.771-109.82 157.811-109.82 259.681 0 199.888 162.043 361.931 361.931 361.931s361.931-162.043 361.931-361.931c0-101.87-42.086-193.909-109.819-259.681-70.451 52.235-157.673 83.129-252.111 83.129s-181.661-30.895-252.112-83.129zM785.046 189.41c71.232 70.412 115.368 168.174 115.368 276.245 0 214.516-173.898 388.414-388.414 388.414s-388.414-173.898-388.414-388.414c0-214.516 173.898-388.414 388.414-388.414 96.839 0 185.4 35.439 253.424 94.056 0 0 0.002-0.002 0.002-0.002 6.746 5.814 13.291 11.855 19.622 18.114 0 0-0.002 0-0.002 0zM512 386.207c-63.38 0-114.759 51.378-114.759 114.759s51.378 114.759 114.759 114.759c63.38 0 114.759-51.378 114.759-114.759s-51.378-114.759-114.759-114.759zM512 359.724c78.006 0 141.241 63.236 141.241 141.241s-63.236 141.241-141.241 141.241c-78.006 0-141.241-63.236-141.241-141.241s63.236-141.241 141.241-141.241z" />
<glyph unicode="&#xe904;" glyph-name="ic-image-56" d="M349.572 827.586c-39.989 0-68.387-0.021-90.61-1.836-21.915-1.791-35.483-5.194-46.234-10.672-21.594-11.002-39.15-28.558-50.152-50.152-5.478-10.75-8.881-24.318-10.672-46.234-1.816-22.223-1.836-50.621-1.836-90.61v-258.459l179.045 179.045c32.75 32.75 85.85 32.75 118.6 0l179.045-179.045 28.976 28.976c32.75 32.75 85.85 32.75 118.6 0l99.596-99.596v329.080c0 39.989-0.021 68.387-1.836 90.61-1.79 21.915-5.194 35.483-10.673 46.234-11.001 21.594-28.557 39.15-50.151 50.152-10.75 5.478-24.318 8.881-46.234 10.672-22.223 1.816-50.621 1.836-90.61 1.836h-324.855zM873.396 262.086l-117.788 117.786c-22.408 22.408-58.739 22.408-81.147 0l-117.788-117.786c-5.171-5.171-13.554-5.171-18.725 0s-5.171 13.554 0 18.725l70.084 70.086-179.045 179.045c-22.408 22.408-58.739 22.408-81.147 0l-197.236-197.235c-0.175-0.175-0.353-0.344-0.535-0.507v-28.972c0-39.989 0.021-68.387 1.836-90.61 1.791-21.915 5.194-35.483 10.672-46.234 11.002-21.594 28.558-39.15 50.152-50.151 10.75-5.478 24.318-8.882 46.234-10.673 22.223-1.815 50.621-1.836 90.61-1.836h324.855c39.989 0 68.387 0.021 90.61 1.836 21.915 1.79 35.483 5.194 46.234 10.673 21.594 11.001 39.15 28.557 50.151 50.151 5.478 10.75 8.882 24.318 10.673 46.234 1.112 13.619 1.552 29.558 1.723 49.062-0.143 0.132-0.284 0.267-0.422 0.406zM123.586 628.083c0 79.102 0 118.653 15.394 148.867 13.541 26.577 35.148 48.184 61.725 61.725 30.213 15.394 69.764 15.394 148.867 15.394h324.855c79.102 0 118.653 0 148.867-15.394 26.576-13.541 48.184-35.148 61.726-61.725 15.394-30.213 15.394-69.764 15.394-148.867v-324.855c0-79.102 0-118.653-15.394-148.867-13.542-26.576-35.15-48.184-61.726-61.726-30.213-15.394-69.764-15.394-148.867-15.394h-324.855c-79.102 0-118.653 0-148.867 15.394-26.577 13.542-48.184 35.15-61.725 61.726-15.394 30.213-15.394 69.764-15.394 148.867v324.855zM732.69 624.552c0 34.127-27.666 61.793-61.793 61.793s-61.793-27.666-61.793-61.793c0-34.127 27.666-61.793 61.793-61.793s61.793 27.666 61.793 61.793zM759.172 624.552c0-48.753-39.523-88.276-88.276-88.276s-88.276 39.523-88.276 88.276c0 48.753 39.523 88.276 88.276 88.276s88.276-39.523 88.276-88.276z" />
<glyph unicode="&#xe905;" glyph-name="ic-gear-24" d="M375.531 744.96h272.923c18.493 0 35.553-9.975 44.622-26.094l138.273-245.762c8.774-15.585 8.774-34.623 0-50.209l-138.273-245.76c-9.069-16.122-26.128-26.096-44.622-26.096h-272.923c-18.495 0-35.553 9.974-44.622 26.096l-138.274 245.76c-8.771 15.585-8.771 34.623 0 50.209l138.275 245.762c9.069 16.119 26.127 26.094 44.622 26.094zM648.454 806.4h-272.923c-40.69 0-78.216-21.945-98.168-57.407l-138.275-245.759c-19.295-34.296-19.295-76.173 0-110.469l138.275-245.76c19.952-35.459 57.479-57.405 98.168-57.405h272.923c40.69 0 78.217 21.946 98.169 57.405l138.273 245.76c19.296 34.296 19.296 76.173 0 110.469l-138.273 245.759c-19.952 35.462-57.479 57.406-98.169 57.406zM573.44 448c0 33.931-27.509 61.44-61.44 61.44s-61.44-27.509-61.44-61.44c0-33.931 27.509-61.44 61.44-61.44s61.44 27.509 61.44 61.44zM634.88 448c0-67.867-55.013-122.88-122.88-122.88s-122.88 55.013-122.88 122.88c0 67.867 55.013 122.88 122.88 122.88s122.88-55.013 122.88-122.88z" />
<glyph unicode="&#xe906;" glyph-name="ic-test-net-24" d="M511.996 896c82.475 0 149.333-66.859 149.333-149.333s-66.859-149.333-149.333-149.333c-82.475 0-149.334 66.859-149.334 149.333s66.86 149.333 149.334 149.333zM511.996 832c-47.13 0-85.334-38.205-85.334-85.333s38.205-85.333 85.334-85.333c47.125 0 85.333 38.205 85.333 85.333s-38.208 85.333-85.333 85.333zM63.995 448c0-82.475 66.859-149.333 149.333-149.333s149.333 66.859 149.333 149.333c0 82.475-66.859 149.333-149.333 149.333s-149.333-66.859-149.333-149.333zM127.995 448c0 47.13 38.205 85.333 85.333 85.333s85.333-38.204 85.333-85.333c0-47.13-38.205-85.333-85.333-85.333s-85.333 38.204-85.333 85.333zM362.662 149.333c0-82.475 66.86-149.333 149.334-149.333s149.333 66.859 149.333 149.333c0 82.475-66.859 149.333-149.333 149.333s-149.334-66.859-149.334-149.333zM426.662 149.333c0 47.13 38.205 85.333 85.334 85.333 47.125 0 85.333-38.204 85.333-85.333s-38.208-85.333-85.333-85.333c-47.13 0-85.334 38.204-85.334 85.333zM661.329 448c0-82.475 66.859-149.333 149.333-149.333s149.333 66.859 149.333 149.333c0 82.475-66.859 149.333-149.333 149.333s-149.333-66.859-149.333-149.333zM725.329 448c0 47.13 38.204 85.333 85.333 85.333 47.125 0 85.333-38.204 85.333-85.333s-38.208-85.333-85.333-85.333c-47.13 0-85.333 38.204-85.333 85.333zM640 746.666c0-11.067-1.404-21.807-4.045-32.050 21.086-0.11 37.598-0.462 51.375-1.588 19.366-1.582 30.494-4.532 38.921-8.826 18.065-9.204 32.751-23.89 41.954-41.954 4.292-8.428 7.245-19.553 8.823-38.919 1.126-13.777 1.481-30.291 1.587-51.377 10.244 2.641 20.983 4.046 32.051 4.046 11.034 0 21.743-1.396 31.953-4.021-0.111 21.846-0.495 40.536-1.801 56.564-1.907 23.323-5.935 43.809-15.59 62.763-15.339 30.106-39.817 54.583-69.922 69.923-18.953 9.657-39.441 13.683-62.763 15.589-16.026 1.309-34.718 1.692-56.563 1.804 2.624-10.214 4.019-20.921 4.019-31.954zM842.62 324.019c-0.111-21.845-0.495-40.538-1.801-56.563-1.907-23.322-5.935-43.81-15.59-62.763-15.339-30.106-39.817-54.583-69.922-69.922-18.953-9.655-39.441-13.683-62.763-15.59-16.026-1.306-34.718-1.69-56.563-1.801 2.624 10.21 4.019 20.919 4.019 31.953 0 11.068-1.404 21.807-4.045 32.051 21.086 0.107 37.598 0.461 51.375 1.587 19.366 1.579 30.494 4.531 38.921 8.823 18.065 9.203 32.751 23.889 41.954 41.954 4.292 8.427 7.245 19.554 8.823 38.921 1.126 13.777 1.481 30.289 1.587 51.375 10.244-2.641 20.983-4.045 32.051-4.045 11.034 0 21.743 1.395 31.953 4.019zM331.458 119.181c16.027-1.306 34.718-1.69 56.564-1.801-2.625 10.21-4.021 20.919-4.021 31.953 0 11.068 1.405 21.807 4.046 32.051-21.086 0.107-37.599 0.461-51.377 1.587-19.366 1.579-30.491 4.531-38.919 8.823-18.063 9.203-32.75 23.889-41.954 41.954-4.294 8.427-7.244 19.554-8.826 38.921-1.126 13.777-1.478 30.289-1.588 51.375-10.243-2.641-20.982-4.045-32.050-4.045-11.033 0-21.74 1.395-31.954 4.019 0.112-21.845 0.495-40.538 1.804-56.563 1.906-23.322 5.932-43.81 15.589-62.763 15.34-30.106 39.817-54.583 69.923-69.922 18.953-9.655 39.439-13.683 62.762-15.59zM181.38 571.978c0.112 21.846 0.495 40.536 1.804 56.564 1.906 23.323 5.932 43.809 15.589 62.763 15.34 30.106 39.817 54.583 69.923 69.923 18.953 9.657 39.439 13.683 62.762 15.589 16.027 1.309 34.718 1.692 56.563 1.804-2.624-10.214-4.020-20.921-4.020-31.954 0-11.067 1.405-21.807 4.045-32.050-21.085-0.11-37.599-0.462-51.376-1.588-19.366-1.582-30.491-4.532-38.919-8.826-18.063-9.204-32.75-23.89-41.954-41.954-4.294-8.428-7.244-19.553-8.826-38.919-1.126-13.777-1.478-30.291-1.588-51.377-10.243 2.641-20.982 4.046-32.050 4.046-11.033 0-21.74-1.396-31.954-4.021z" />
<glyph unicode="&#xe907;" glyph-name="ic-moon-24" d="M824.102 398.084v0zM842.206 370.752v0zM725.333 469.333c-82.475 0-149.333 66.859-149.333 149.333h-128c0-153.169 124.164-277.333 277.333-277.333v128zM576 618.667c0 26.635 6.916 51.462 19.004 72.983l-111.599 62.687c-22.562-40.167-35.405-86.514-35.405-135.669h128zM234.667 448c0 153.167 124.166 277.333 277.333 277.333v128c-223.86 0-405.333-181.474-405.333-405.333h128zM512 170.667c-153.167 0-277.333 124.164-277.333 277.333h-128c0-223.859 181.474-405.333 405.333-405.333v128zM767.488 339.891c-42.197-99.571-140.783-169.225-255.488-169.225v-128c167.893 0 311.804 102.063 373.342 247.279l-117.854 49.946zM595.004 691.649c16.836 29.972 19.285 66.032 8.111 96.639-11.917 32.642-42.97 65.045-91.115 65.045v-128c-6.46 0-13.897 2.31-20.083 7.185-5.628 4.433-8.081 9.248-9.041 11.878-1.54 4.223-1.058 7.112 0.529 9.94l111.599-62.687zM725.333 341.333c30.161 0 49.958-0.026 63.718-0.802 6.78-0.384 9.963-0.858 10.965-1.054 1.737-0.341-4.028 0.393-11.601 5.478l71.373 106.257c-12.966 8.713-26.441 12.164-35.072 13.858-9.365 1.843-19.204 2.731-28.433 3.255-18.266 1.033-42.462 1.007-70.95 1.007v-128zM885.342 289.946c5.572 13.15 11.661 27.319 15.556 39.829 4.151 13.312 8.252 31.842 4.147 53.103l-125.679-24.252c-1.643 8.495 0.649 13.466-0.67 9.229-0.631-2.027-1.741-5.111-3.721-10.035-1.971-4.911-4.373-10.59-7.488-17.929l117.854-49.946zM788.416 344.956c0.358-0.239-2.581 1.694-5.542 6.161-2.957 4.467-3.588 7.932-3.507 7.509l125.679 24.252c-2.347 12.156-6.711 25.715-15.454 38.916-8.747 13.205-19.524 22.515-29.803 29.419l-71.373-106.257z" />
<glyph unicode="&#xe908;" glyph-name="ic-history-24" d="M618.287 761.118c-75.964 25.786-158.711 23.078-232.829-7.622-74.116-30.7-134.544-87.297-170.025-159.246-18.799-38.121-32.611-84.064-33.7-138.084l-21.214 14.434c-14.611 9.941-34.516 6.157-44.458-8.452-9.942-14.613-6.158-34.517 8.454-44.459l76.141-51.814c10.917-7.428 25.276-7.386 36.151 0.102l75.239 51.81c14.556 10.022 18.23 29.948 8.207 44.506-10.023 14.554-29.949 18.231-44.504 8.205l-30.080-20.71c0.085 46.187 11.589 84.57 27.165 116.156 28.614 58.024 77.346 103.666 137.117 128.425 59.772 24.758 126.503 26.942 187.768 6.147 61.261-20.796 112.875-63.153 145.22-119.181 32.35-56.030 43.226-121.907 30.605-185.357-12.621-63.454-47.881-120.154-99.209-159.539-51.324-39.381-115.221-58.765-179.776-54.532-64.559 4.233-125.375 31.787-171.121 77.534-12.497 12.497-32.758 12.497-45.255 0s-12.497-32.759 0-45.257c56.726-56.725 132.14-90.893 212.191-96.141s159.279 18.786 222.925 67.622c63.642 48.836 107.362 119.147 123.012 197.824 15.654 78.682 2.167 160.371-37.943 229.845s-104.111 121.998-180.079 147.785zM544 597.333c0 17.673-14.327 32-32 32s-32-14.327-32-32v-149.333c0-10.701 5.346-20.689 14.251-26.624l64-42.667c14.703-9.805 34.573-5.833 44.373 8.875 9.805 14.703 5.833 34.573-8.875 44.373l-49.749 33.169v132.207z" />
<glyph unicode="&#xe909;" glyph-name="ic-dashboard-small-24" d="M139.435 650.104c0-59.287 0-88.931 11.456-111.611 10.272-20.337 26.785-36.849 47.121-47.123 22.68-11.456 52.324-11.456 111.61-11.456s88.931 0 111.611 11.456c20.337 10.274 36.849 26.786 47.123 47.123 11.452 22.68 11.452 52.324 11.452 111.611s0 88.93-11.452 111.611c-10.274 20.336-26.786 36.849-47.123 47.121-22.68 11.456-52.324 11.456-111.611 11.456s-88.93 0-111.61-11.456c-20.336-10.272-36.849-26.784-47.121-47.121-11.456-22.681-11.456-52.324-11.456-111.611zM203.466 688.004c0 23.895 0 35.843 4.65 44.97 4.090 8.028 10.618 14.555 18.646 18.646 9.127 4.651 21.075 4.651 44.97 4.651h75.783c23.896 0 35.843 0 44.97-4.651 8.029-4.090 14.556-10.618 18.646-18.646 4.65-9.127 4.65-21.075 4.65-44.97v-75.783c0-23.895 0-35.843-4.65-44.97-4.090-8.028-10.618-14.555-18.646-18.646-9.127-4.65-21.074-4.65-44.97-4.65h-75.783c-23.895 0-35.843 0-44.97 4.65-8.028 4.091-14.556 10.618-18.646 18.646-4.65 9.127-4.65 21.075-4.65 44.97v75.783zM139.435 245.897c0-59.29 0-88.93 11.456-111.612 10.272-20.335 26.785-36.851 47.121-47.121 22.68-11.456 52.324-11.456 111.61-11.456s88.931 0 111.611 11.456c20.337 10.27 36.849 26.786 47.123 47.121 11.452 22.682 11.452 52.322 11.452 111.612 0 59.285 0 88.93-11.452 111.612-10.274 20.335-26.786 36.847-47.123 47.121-22.68 11.456-52.324 11.456-111.611 11.456s-88.93 0-111.61-11.456c-20.336-10.274-36.849-26.786-47.121-47.121-11.456-22.682-11.456-52.326-11.456-111.612zM203.466 283.797c0 23.893 0 35.84 4.65 44.971 4.090 8.026 10.618 14.554 18.646 18.645 9.127 4.651 21.075 4.651 44.97 4.651h75.783c23.896 0 35.843 0 44.97-4.651 8.029-4.092 14.556-10.62 18.646-18.645 4.65-9.131 4.65-21.077 4.65-44.971v-75.785c0-23.898 0-35.844-4.65-44.971-4.090-8.030-10.618-14.554-18.646-18.645-9.127-4.651-21.074-4.651-44.97-4.651h-75.783c-23.895 0-35.843 0-44.97 4.651-8.028 4.092-14.556 10.615-18.646 18.645-4.65 9.126-4.65 21.073-4.65 44.971v75.785zM555.639 761.715c10.274 20.336 26.786 36.849 47.121 47.121 22.682 11.456 52.326 11.456 111.612 11.456s88.93 0 111.612-11.456c20.335-10.272 36.847-26.784 47.121-47.121 11.456-22.681 11.456-52.324 11.456-111.611s0-88.931-11.456-111.611c-10.274-20.337-26.786-36.849-47.121-47.123-22.682-11.456-52.326-11.456-111.612-11.456s-88.93 0-111.612 11.456c-20.335 10.274-36.847 26.786-47.121 47.123-11.456 22.68-11.456 52.324-11.456 111.611s0 88.93 11.456 111.611zM612.868 732.975c-4.651-9.127-4.651-21.075-4.651-44.97v-75.783c0-23.895 0-35.843 4.651-44.97 4.087-8.028 10.615-14.555 18.645-18.646 9.126-4.65 21.073-4.65 44.971-4.65h75.78c23.898 0 35.844 0 44.971 4.65 8.030 4.091 14.558 10.618 18.645 18.646 4.651 9.127 4.651 21.075 4.651 44.97v75.783c0 23.895 0 35.843-4.651 44.97-4.087 8.028-10.615 14.555-18.645 18.646-9.126 4.651-21.073 4.651-44.971 4.651h-75.78c-23.898 0-35.844 0-44.971-4.651-8.030-4.090-14.558-10.618-18.645-18.646zM544.183 245.897c0-59.29 0-88.93 11.456-111.612 10.274-20.335 26.786-36.851 47.121-47.121 22.682-11.456 52.326-11.456 111.612-11.456s88.93 0 111.612 11.456c20.335 10.27 36.847 26.786 47.121 47.121 11.456 22.682 11.456 52.322 11.456 111.612 0 59.285 0 88.93-11.456 111.612-10.274 20.335-26.786 36.847-47.121 47.121-22.682 11.456-52.326 11.456-111.612 11.456s-88.93 0-111.612-11.456c-20.335-10.274-36.847-26.786-47.121-47.121-11.456-22.682-11.456-52.326-11.456-111.612zM608.218 283.797c0 23.893 0 35.84 4.651 44.971 4.087 8.026 10.615 14.554 18.645 18.645 9.126 4.651 21.073 4.651 44.971 4.651h75.78c23.898 0 35.844 0 44.971-4.651 8.030-4.092 14.558-10.62 18.645-18.645 4.651-9.131 4.651-21.077 4.651-44.971v-75.785c0-23.898 0-35.844-4.651-44.971-4.087-8.030-10.615-14.554-18.645-18.645-9.126-4.651-21.073-4.651-44.971-4.651h-75.78c-23.898 0-35.844 0-44.971 4.651-8.030 4.092-14.558 10.615-18.645 18.645-4.651 9.126-4.651 21.073-4.651 44.971v75.785z" />
<glyph unicode="&#xe90a;" glyph-name="ic-messages-24" d="M103.935 696.148c16.363 32.113 42.471 58.222 74.584 74.584 36.508 18.601 84.299 18.601 179.881 18.601h307.2c95.582 0 143.373 0 179.883-18.601 32.111-16.363 58.219-42.471 74.581-74.584 18.603-36.508 18.603-84.299 18.603-179.881v-136.533c0-95.582 0-143.373-18.603-179.883-16.363-32.111-42.47-58.219-74.581-74.581-36.51-18.603-84.301-18.603-179.883-18.603h-340.267l-41.164-36.591c-47.818-42.505-71.727-63.757-90.976-69.026-39.391-10.778-80.898 7.859-99.010 44.463-5.984 12.096-7.922 30.635-8.55 61.154h-0.301v409.6c0 95.582 0 143.373 18.601 179.881zM160.959 667.092c-11.626-22.817-11.626-52.687-11.626-112.426v-452.070c0-15.957 0-23.936 2.209-28.407 4.52-9.143 14.88-13.807 24.723-11.132 4.81 1.31 10.784 6.596 22.732 17.173l82.784 73.284c7.168 6.345 10.752 9.519 14.821 11.78 3.61 2.005 7.491 3.477 11.523 4.369 4.547 1.003 9.333 1.003 18.906 1.003h376.969c59.738 0 89.609 0 112.427 11.627 20.070 10.227 36.386 26.543 46.613 46.613 11.627 22.818 11.627 52.689 11.627 112.427v213.333c0 59.739 0 89.609-11.627 112.426-10.227 20.070-26.543 36.388-46.613 46.615-22.818 11.626-52.689 11.626-112.427 11.626h-384c-59.739 0-89.609 0-112.426-11.626-20.070-10.227-36.388-26.545-46.615-46.615zM298.667 522.667c0 17.673 14.327 32 32 32h234.667c17.673 0 32-14.327 32-32s-14.327-32-32-32h-234.667c-17.673 0-32 14.327-32 32zM298.667 373.333c0 17.673 14.327 32 32 32h362.667c17.673 0 32-14.327 32-32s-14.327-32-32-32h-362.667c-17.673 0-32 14.327-32 32z" />
<glyph unicode="&#xe90b;" glyph-name="ic-doc-24" d="M556.608 831.992c0.239 0.005 0.478 0.008 0.717 0.008s0.478-0.003 0.717-0.008l13.244 0.002c10.987 0.014 21.504 0.027 31.723-2.501 8.951-2.215 17.485-5.867 25.267-10.813 8.883-5.645 16.137-13.263 23.714-21.223l170.466-178.579c7.138-7.458 13.969-14.597 19.012-23.136 4.42-7.484 7.671-15.599 9.638-24.065 2.249-9.66 2.236-19.541 2.227-29.864l-0.004-242.306c0-34.692 0-62.677-1.852-85.333-1.903-23.33-5.931-43.823-15.59-62.784-15.343-30.114-39.821-54.601-69.931-69.943-18.957-9.664-39.445-13.687-62.771-15.595-22.656-1.852-50.633-1.852-85.321-1.852h-169.067c-34.686 0-62.662 0-85.318 1.852-23.327 1.907-43.816 5.931-62.772 15.595-30.11 15.343-54.591 39.829-69.933 69.943-9.659 18.961-13.685 39.454-15.591 62.784-1.851 22.656-1.851 50.641-1.85 85.333v296.979c0 34.692 0 62.674 1.85 85.333 1.906 23.331 5.932 43.823 15.591 62.783 15.342 30.116 39.823 54.601 69.933 69.945 18.956 9.66 39.445 13.687 62.772 15.594 22.656 1.851 50.633 1.851 85.318 1.851h107.81zM525.321 767.971h-75.153c-36.375 0-61.733-0.025-81.475-1.638-19.369-1.583-30.496-4.533-38.925-8.829-18.066-9.207-32.754-23.898-41.96-41.967-4.295-8.43-7.245-19.56-8.827-38.932-1.613-19.745-1.638-45.107-1.638-81.49v-294.239c0-36.382 0.025-61.747 1.638-81.489 1.583-19.375 4.532-30.502 8.827-38.933 9.205-18.069 23.893-32.759 41.96-41.967 8.429-4.297 19.556-7.245 38.925-8.828 19.742-1.613 45.1-1.638 81.475-1.638h166.327c36.378 0 61.734 0.026 81.476 1.638 19.366 1.583 30.494 4.531 38.925 8.828 18.065 9.207 32.755 23.898 41.958 41.967 4.297 8.431 7.245 19.558 8.828 38.933 1.613 19.742 1.638 45.107 1.638 81.489v190.541h-128.772c-17.225 0-32.047 0-44.25 0.998-12.864 1.050-25.609 3.366-37.854 9.609-18.308 9.331-33.19 24.218-42.522 42.528-6.238 12.249-8.555 24.994-9.609 37.863-0.994 12.203-0.994 27.028-0.994 44.256v141.3zM789.035 555.44c-0.077 0.795-0.166 1.278-0.269 1.725-0.495 2.117-1.306 4.145-2.411 6.016-0.815 1.375-2.057 2.956-11.797 13.16l-167.164 175.121c-10.381 10.879-12.015 12.274-13.444 13.182-1.446 0.92-2.999 1.661-4.621 2.208v-138.941c0-18.814 0.026-30.999 0.785-40.283 0.725-8.909 1.967-12.291 2.842-14.011 3.191-6.264 8.286-11.357 14.549-14.548 1.719-0.876 5.099-2.117 14.007-2.845 9.28-0.759 21.466-0.783 40.277-0.783h127.245z" />
<glyph unicode="&#xe90c;" glyph-name="ic-notification-24" d="M711.497 576c0 106.039-85.961 192-192 192s-191.999-85.961-191.999-192v-76.454c0-19.115-5.972-37.751-17.082-53.303l-63.602-89.041c-30.257-42.359 0.023-101.201 52.079-101.201h441.212c52.053 0 82.334 58.842 52.079 101.201l-63.603 89.041c-11.11 15.552-17.084 34.189-17.084 53.303v76.454zM263.497 576c0 141.385 114.615 256 255.999 256s256-114.615 256-256v-76.454c0-5.773 1.805-11.405 5.163-16.102l63.603-89.045c60.51-84.719-0.047-202.398-104.158-202.398h-92.608c0-70.694-57.306-128-128-128-70.69 0-127.999 57.306-127.999 128h-92.605c-104.112 0-164.672 117.679-104.158 202.398l63.602 89.045c3.357 4.698 5.161 10.33 5.161 16.102v76.454zM455.497 192c0-35.345 28.655-64 64-64s64 28.655 64 64h-128z" />
<glyph unicode="&#xe90d;" d="M896 448c0-212.077-171.923-384-384-384s-384 171.923-384 384c0 212.077 171.923 384 384 384s384-171.923 384-384z" />
<glyph unicode="&#xe90e;" d="M470.972 618.698l7.799-202.724c0.687-17.852 15.36-31.974 33.229-31.974s32.542 14.123 33.229 31.974l7.799 202.724c0.892 23.277-17.732 42.635-41.028 42.635s-41.92-19.358-41.028-42.635zM512 234.667c23.565 0 42.667 19.102 42.667 42.667s-19.102 42.667-42.667 42.667c-23.565 0-42.667-19.102-42.667-42.667s19.102-42.667 42.667-42.667z" />
<glyph unicode="&#xe90f;" d="M896 448c0-212.077-171.923-384-384-384s-384 171.923-384 384c0 212.077 171.923 384 384 384s384-171.923 384-384z" />
<glyph unicode="&#xe910;" d="M350.706 609.294c12.497 12.497 32.758 12.497 45.255 0l116.039-116.038 116.041 116.038c12.497 12.497 32.755 12.497 45.252 0s12.497-32.758 0-45.255l-116.036-116.039 116.036-116.041c12.497-12.497 12.497-32.755 0-45.252s-32.755-12.497-45.252 0l-116.041 116.036-116.039-116.036c-12.497-12.497-32.758-12.497-45.255 0s-12.497 32.755 0 45.252l116.038 116.041-116.038 116.039c-12.497 12.497-12.497 32.758 0 45.255z" />
<glyph unicode="&#xe911;" d="M896 448c0-212.077-171.923-384-384-384s-384 171.923-384 384c0 212.077 171.923 384 384 384s384-171.923 384-384z" />
<glyph unicode="&#xe912;" d="M694.626 566.627c12.497-12.497 12.497-32.758 0-45.254l-224-224c-12.497-12.497-32.755-12.497-45.254 0l-96 96c-12.497 12.497-12.497 32.755 0 45.252s32.758 12.497 45.255 0l73.373-73.37 201.374 201.371c12.497 12.497 32.755 12.497 45.252 0z" />
<glyph unicode="&#xe913;" glyph-name="ic-hot-keys-24" d="M151.252 715.518c20.453 40.141 53.089 72.777 93.23 93.23 45.635 23.252 105.373 23.252 224.851 23.252h85.333c119.479 0 179.217 0 224.853-23.252 40.141-20.453 72.777-53.089 93.227-93.23 23.253-45.635 23.253-105.373 23.253-224.851v-85.333c0-119.479 0-179.217-23.253-224.853-20.45-40.141-53.086-72.777-93.227-93.227-45.636-23.253-105.374-23.253-224.853-23.253h-85.333c-119.478 0-179.217 0-224.851 23.253-40.141 20.45-72.777 53.086-93.23 93.227-23.252 45.636-23.252 105.374-23.252 224.853v85.333c0 119.478 0 179.217 23.252 224.851zM208.276 686.463c-16.276-31.944-16.276-73.762-16.276-157.396v-162.133c0-83.635 0-125.453 16.276-157.397 14.317-28.096 37.162-50.944 65.261-65.259 31.944-16.277 73.762-16.277 157.396-16.277h162.133c83.635 0 125.453 0 157.397 16.277 28.096 14.315 50.944 37.163 65.259 65.259 16.277 31.945 16.277 73.762 16.277 157.397v162.133c0 83.634 0 125.452-16.277 157.396-14.315 28.099-37.163 50.944-65.259 65.261-31.945 16.276-73.762 16.276-157.397 16.276h-162.133c-83.634 0-125.452 0-157.396-16.276-28.099-14.317-50.944-37.162-65.261-65.261z" />
<glyph unicode="&#xe914;" glyph-name="ic-sun-24" d="M512 917.333c-17.673 0-32-14.327-32-32v-85.333c0-17.673 14.327-32 32-32s32 14.327 32 32v85.333c0 17.673-14.327 32-32 32zM512 256c-106.038 0-192 85.961-192 192s85.961 192 192 192c106.039 0 192-85.961 192-192s-85.961-192-192-192zM512 192c141.385 0 256 114.615 256 256s-114.615 256-256 256c-141.385 0-256-114.615-256-256s114.615-256 256-256zM843.878 734.614c12.497 12.497 12.497 32.758 0 45.255s-32.759 12.497-45.257 0l-60.339-60.34c-12.497-12.497-12.497-32.758 0-45.255s32.759-12.497 45.252 0l60.343 60.34zM180.139 779.869c12.497 12.497 32.758 12.497 45.255 0l60.34-60.34c12.497-12.497 12.497-32.758 0-45.255s-32.758-12.497-45.255 0l-60.34 60.34c-12.497 12.497-12.497 32.758 0 45.255zM949.342 416c17.673 0 32 14.327 32 32s-14.327 32-32 32h-85.333c-17.673 0-32-14.327-32-32s14.327-32 32-32h85.333zM512 128c17.673 0 32-14.327 32-32v-85.333c0-17.673-14.327-32-32-32s-32 14.327-32 32v85.333c0 17.673 14.327 32 32 32zM285.734 176.469c12.497 12.497 12.497 32.759 0 45.257s-32.758 12.497-45.255 0l-60.34-60.339c-12.497-12.497-12.497-32.759 0-45.257s32.758-12.497 45.255 0l60.34 60.339zM738.283 221.726c12.497 12.497 32.759 12.497 45.252 0l60.343-60.339c12.497-12.497 12.497-32.759 0-45.257s-32.759-12.497-45.257 0l-60.339 60.339c-12.497 12.497-12.497 32.759 0 45.257zM160.008 416c17.673 0 32 14.327 32 32s-14.327 32-32 32h-85.333c-17.673 0-32-14.327-32-32s14.327-32 32-32h85.333z" />
<glyph unicode="&#xe915;" glyph-name="ic-placeholder-24" d="M170.667 960h682.667c94.257 0 170.667-76.41 170.667-170.667v-682.667c0-94.257-76.41-170.667-170.667-170.667h-682.667c-94.257 0-170.667 76.41-170.667 170.667v682.667c0 94.257 76.41 170.667 170.667 170.667z" />
<glyph unicode="&#xe916;" glyph-name="ic-done-24" d="M833.293 683.961c12.497-12.497 12.497-32.758 0-45.255l-426.665-426.665c-12.497-12.497-32.758-12.497-45.255 0l-170.667 170.667c-12.497 12.497-12.497 32.755 0 45.252s32.758 12.497 45.255 0l148.039-148.036 404.041 404.038c12.497 12.497 32.755 12.497 45.252 0z" />
<glyph unicode="&#xe917;" glyph-name="ic-done-circle-24" d="M512 64c-212.077 0-384 171.921-384 384 0 212.077 171.923 384 384 384 212.079 0 384-171.923 384-384 0-212.079-171.921-384-384-384zM694.626 521.374c12.497 12.495 12.497 32.757 0 45.254s-32.755 12.497-45.252 0l-201.374-201.371-73.373 73.37c-12.497 12.497-32.758 12.497-45.255 0s-12.497-32.755 0-45.252l96-96c12.498-12.497 32.756-12.497 45.254 0l224 224z" />
<glyph unicode="&#xe918;" glyph-name="ic-xmark-circle-24" d="M512 64c-212.077 0-384 171.921-384 384 0 212.077 171.923 384 384 384 212.079 0 384-171.923 384-384 0-212.079-171.921-384-384-384zM395.961 609.294c-12.497 12.497-32.758 12.497-45.255 0s-12.497-32.758 0-45.255l116.038-116.039-116.038-116.041c-12.497-12.497-12.497-32.755 0-45.252s32.758-12.497 45.255 0l116.039 116.036 116.041-116.036c12.497-12.497 32.755-12.497 45.252 0s12.497 32.755 0 45.252l-116.036 116.041 116.036 116.039c12.497 12.497 12.497 32.758 0 45.255s-32.755 12.497-45.252 0l-116.041-116.038-116.039 116.038z" />
<glyph unicode="&#xe919;" glyph-name="ic-settings-24" d="M288 704c0 35.346 28.654 64 64 64s64-28.654 64-64c0-35.346-28.654-64-64-64s-64 28.654-64 64zM228.032 736h-68.032c-17.673 0-32-14.327-32-32s14.327-32 32-32h68.032c14.21-55.207 64.325-96 123.968-96s109.76 40.793 123.968 96h388.032c17.673 0 32 14.327 32 32s-14.327 32-32 32h-388.032c-14.208 55.207-64.325 96-123.968 96s-109.758-40.793-123.968-96zM160 224c-17.673 0-32-14.327-32-32s14.327-32 32-32h68.032c14.21-55.206 64.325-96 123.968-96s109.76 40.794 123.968 96h388.032c17.673 0 32 14.327 32 32s-14.327 32-32 32h-388.032c-14.208 55.206-64.325 96-123.968 96s-109.758-40.794-123.968-96h-68.032zM352 256c35.346 0 64-28.655 64-64s-28.654-64-64-64c-35.346 0-64 28.655-64 64s28.654 64 64 64zM128 448c0 17.673 14.327 32 32 32h388.032c14.208 55.207 64.324 96 123.968 96s109.76-40.793 123.968-96h68.032c17.673 0 32-14.327 32-32s-14.327-32-32-32h-68.032c-14.208-55.206-64.324-96-123.968-96s-109.76 40.794-123.968 96h-388.032c-17.673 0-32 14.327-32 32zM736 448c0 35.345-28.655 64-64 64s-64-28.655-64-64c0-35.345 28.655-64 64-64s64 28.655 64 64z" />
<glyph unicode="&#xe91a;" glyph-name="ic-copy-24" d="M430.933 789.333c48.849 0 81.634-0.050 106.88-2.113 24.503-2.001 36.22-5.576 43.947-9.513 20.070-10.227 36.386-26.545 46.613-46.615 3.938-7.728 7.514-19.443 9.515-43.944 1.079-13.235 1.609-28.542 1.869-47.148h-46.69c-95.582 0-143.373 0-179.881-18.601-32.113-16.363-58.222-42.471-74.584-74.584-18.601-36.508-18.601-84.299-18.601-179.881v-46.69c-18.606 0.26-33.913 0.789-47.148 1.869-24.501 2.001-36.216 5.577-43.944 9.515-20.070 10.227-36.388 26.543-46.615 46.613-3.937 7.727-7.511 19.443-9.513 43.947-2.063 25.246-2.113 58.031-2.113 106.88v51.2c0 48.847 0.050 81.634 2.113 106.882 2.001 24.501 5.576 36.216 9.513 43.944 10.227 20.070 26.545 36.388 46.615 46.615 7.728 3.937 19.443 7.511 43.944 9.513 25.248 2.063 58.034 2.113 106.882 2.113h51.2zM703.765 639.764c-0.777 57.745-4.1 92.383-18.368 120.383-16.363 32.113-42.47 58.222-74.581 74.584-36.51 18.601-84.301 18.601-179.883 18.601h-51.2c-95.582 0-143.373 0-179.881-18.601-32.113-16.363-58.222-42.471-74.584-74.584-18.601-36.508-18.601-84.299-18.601-179.881v-51.2c0-95.582 0-143.373 18.601-179.883 16.363-32.111 42.471-58.219 74.584-74.581 28-14.268 62.638-17.591 120.383-18.368 0.775-57.745 4.099-92.382 18.366-120.384 16.363-32.111 42.471-58.219 74.584-74.581 36.508-18.603 84.299-18.603 179.881-18.603h51.2c95.582 0 143.373 0 179.883 18.603 32.111 16.363 58.219 42.47 74.581 74.581 18.603 36.51 18.603 84.301 18.603 179.883v51.2c0 95.582 0 143.373-18.603 179.881-16.363 32.113-42.47 58.222-74.581 74.584-28.002 14.266-62.639 17.591-120.384 18.366zM593.067 576h51.2c48.849 0 81.634-0.050 106.88-2.113 24.503-2.001 36.22-5.576 43.947-9.513 20.070-10.227 36.386-26.545 46.613-46.614 3.938-7.727 7.514-19.443 9.515-43.947 2.061-25.246 2.112-58.031 2.112-106.88v-51.2c0-48.849-0.051-81.634-2.112-106.88-2.001-24.503-5.577-36.22-9.515-43.947-10.227-20.070-26.543-36.386-46.613-46.613-7.727-3.938-19.443-7.514-43.947-9.515-25.246-2.061-58.031-2.112-106.88-2.112h-51.2c-48.849 0-81.634 0.051-106.88 2.112-24.503 2.001-36.22 5.577-43.947 9.515-20.070 10.227-36.387 26.543-46.614 46.613-3.937 7.727-7.511 19.443-9.513 43.947-2.063 25.246-2.113 58.031-2.113 106.88v51.2c0 48.849 0.050 81.634 2.113 106.88 2.001 24.503 5.576 36.22 9.513 43.947 10.227 20.070 26.545 36.387 46.614 46.614 7.727 3.937 19.443 7.511 43.947 9.513 25.246 2.063 58.031 2.113 106.88 2.113z" />
<glyph unicode="&#xe91b;" glyph-name="ic-lifebuoy-24" d="M853.333 448c0 82.735-29.436 158.592-78.404 217.675l-106.423-106.426c22.349-31.386 35.494-69.781 35.494-111.249s-13.146-79.863-35.494-111.249l106.423-106.428c48.969 59.085 78.404 134.942 78.404 217.677zM729.677 710.93c-59.085 48.969-134.942 78.403-217.677 78.403s-158.592-29.435-217.675-78.403l106.426-106.426c31.386 22.351 69.781 35.496 111.249 35.496s79.863-13.145 111.249-35.496l106.428 106.426zM512 106.667c82.735 0 158.592 29.436 217.677 78.404l-106.428 106.423c-31.386-22.349-69.781-35.494-111.249-35.494s-79.863 13.146-111.249 35.494l-106.426-106.423c59.083-48.969 134.94-78.404 217.675-78.404zM249.070 230.323l106.426 106.428c-22.351 31.386-35.496 69.781-35.496 111.249s13.145 79.863 35.496 111.249l-106.426 106.426c-48.969-59.083-78.403-134.94-78.403-217.675s29.435-158.592 78.403-217.677zM917.333 448c0-223.859-181.474-405.333-405.333-405.333s-405.333 181.474-405.333 405.333c0 223.86 181.474 405.333 405.333 405.333s405.333-181.474 405.333-405.333zM640 448c0 70.694-57.306 128-128 128s-128-57.306-128-128c0-70.694 57.306-128 128-128s128 57.306 128 128z" />
<glyph unicode="&#xe91c;" glyph-name="ic-exit-24" d="M433.067 832h-1.408c-46.598 0-83.526 0-113.292-2.432-30.438-2.487-56.192-7.675-79.709-19.658-38.134-19.43-69.138-50.435-88.569-88.569-11.983-23.517-17.171-49.271-19.658-79.709-2.432-29.765-2.432-66.693-2.432-113.292v0-160.683c0-46.601 0-83.524 2.432-113.293 2.487-30.438 7.675-56.192 19.658-79.71 19.43-38.131 50.435-69.137 88.569-88.567 23.517-11.981 49.271-17.169 79.709-19.657 29.765-2.432 66.693-2.432 113.292-2.432h133.675c17.673 0 32 14.327 32 32s-14.327 32-32 32h-132.267c-48.319 0-82.634 0.026-109.488 2.219-26.48 2.163-42.875 6.276-55.866 12.894-26.092 13.295-47.305 34.509-60.599 60.599-6.619 12.992-10.732 29.389-12.895 55.868-2.194 26.854-2.219 61.167-2.219 109.487v157.867c0 48.319 0.025 82.634 2.219 109.488 2.163 26.48 6.275 42.875 12.895 55.866 13.295 26.092 34.508 47.305 60.599 60.599 12.991 6.619 29.385 10.732 55.866 12.895 26.854 2.194 61.169 2.219 109.488 2.219h132.267c17.673 0 32 14.327 32 32s-14.327 32-32 32h-132.267zM747.959 651.961c-12.497 12.497-32.755 12.497-45.252 0s-12.497-32.758 0-45.255l126.703-126.706h-456.077c-17.673 0-32-14.327-32-32s14.327-32 32-32h456.077l-126.703-126.707c-12.497-12.497-12.497-32.755 0-45.252s32.755-12.497 45.252 0l181.333 181.333c12.497 12.497 12.497 32.755 0 45.252l-181.333 181.335z" />
<glyph unicode="&#xe91d;" glyph-name="ic-pencil-24" d="M699.149 762.043c-10.714 3.48-22.251 3.48-32.964 0-4.122-1.34-9.527-4.218-18.897-12.173-9.655-8.198-21.265-19.772-38.537-37.041l-51.499-51.497 168.081-168.080 51.494 51.498c17.271 17.27 28.847 28.879 37.043 38.535 7.953 9.37 10.833 14.775 12.173 18.9 3.482 10.711 3.482 22.25 0 32.962-1.34 4.124-4.22 9.53-12.173 18.9-8.196 9.656-19.772 21.265-37.043 38.535l-20.245 20.246c-17.271 17.27-28.877 28.844-38.537 37.041-9.37 7.954-14.775 10.833-18.897 12.173zM489.37 683.961l0.188 0.186 74.859 74.856c16.115 16.115 29.564 29.567 41.451 39.658 12.399 10.525 25.182 19.26 40.542 24.251 23.565 7.657 48.951 7.657 72.516 0 15.36-4.991 28.143-13.726 40.542-24.251 11.887-10.091 25.335-23.542 41.451-39.657v0l0.922-0.919 21.167-21.169c16.115-16.113 29.564-29.562 39.654-41.448 10.526-12.397 19.26-25.182 24.252-40.542 7.654-23.566 7.654-48.95 0-72.516-4.992-15.36-13.726-28.145-24.252-40.542-10.091-11.887-23.543-25.335-39.654-41.45l-369.638-369.638c-19.652-19.661-33.255-33.271-49.454-43.2-14.316-8.772-29.923-15.236-46.249-19.157-18.474-4.433-37.716-4.429-65.516-4.42h-30.987c-16.867 0-31.418 0-43.403 0.977-12.651 1.033-25.234 3.315-37.342 9.485-18.063 9.203-32.75 23.893-41.953 41.954-6.17 12.109-8.452 24.691-9.485 37.342-0.979 11.989-0.979 26.539-0.978 43.409v30.981c-0.008 27.802-0.014 47.044 4.421 65.519 3.92 16.324 10.384 31.932 19.157 46.246 9.927 16.201 23.537 29.803 43.2 49.455v0l294.592 294.593zM410.691 178.611l269.386 269.389-168.077 168.078-269.388-269.385c-23.215-23.215-30.989-31.283-36.465-40.218-5.263-8.589-9.142-17.954-11.494-27.75-2.447-10.193-2.653-21.393-2.653-54.221v-26.103c0-18.449 0.025-30.362 0.766-39.428 0.71-8.695 1.916-11.917 2.722-13.5 3.068-6.020 7.963-10.918 13.984-13.986 1.582-0.806 4.805-2.010 13.498-2.722 9.067-0.738 20.98-0.764 39.429-0.764h26.103c32.831 0 44.030 0.205 54.222 2.654 9.795 2.351 19.16 6.229 27.749 11.494 8.937 5.474 17.002 13.248 40.217 36.463zM586.667 128c-17.673 0-32-14.327-32-32s14.327-32 32-32h277.333c17.673 0 32 14.327 32 32s-14.327 32-32 32h-277.333z" />
<glyph unicode="&#xe91e;" glyph-name="ic-search-24" d="M704 490.667c0 129.603-105.062 234.667-234.667 234.667-129.603 0-234.667-105.064-234.667-234.667s105.064-234.667 234.667-234.667c129.604 0 234.667 105.062 234.667 234.667zM656.687 258.057c-51.238-41.318-116.407-66.057-187.354-66.057-164.949 0-298.667 133.717-298.667 298.667s133.718 298.667 298.667 298.667c164.949 0 298.667-133.718 298.667-298.667 0-70.946-24.738-136.115-66.057-187.354l120.683-120.687c12.497-12.497 12.497-32.755 0-45.252s-32.755-12.497-45.252 0l-120.687 120.683z" />
<glyph unicode="&#xe91f;" glyph-name="ic-minus-circle-24" d="M128 448c0-212.079 171.923-384 384-384 212.079 0 384 171.921 384 384 0 212.077-171.921 384-384 384-212.077 0-384-171.923-384-384zM192 448c0 176.731 143.269 320 320 320s320-143.269 320-320c0-176.73-143.27-320-320-320s-320 143.27-320 320zM352 480c-17.673 0-32-14.327-32-32s14.327-32 32-32h320c17.673 0 32 14.327 32 32s-14.327 32-32 32h-320z" />
<glyph unicode="&#xe920;" glyph-name="ic-loader-24" d="M512 725.333c-153.167 0-277.333-124.166-277.333-277.333 0-153.169 124.166-277.333 277.333-277.333 153.169 0 277.333 124.164 277.333 277.333 0 17.673 14.327 32 32 32s32-14.327 32-32c0-188.514-152.819-341.333-341.333-341.333s-341.333 152.819-341.333 341.333c0 188.513 152.82 341.333 341.333 341.333 17.673 0 32-14.327 32-32s-14.327-32-32-32z" />
<glyph unicode="&#xe921;" glyph-name="ic-plus-circle-24" d="M128 448c0-212.079 171.923-384 384-384 212.079 0 384 171.921 384 384 0 212.077-171.921 384-384 384-212.077 0-384-171.923-384-384zM192 448c0 176.731 143.269 320 320 320s320-143.269 320-320c0-176.73-143.27-320-320-320s-320 143.27-320 320zM544 608c0 17.673-14.327 32-32 32s-32-14.327-32-32v-128h-128c-17.673 0-32-14.327-32-32s14.327-32 32-32h128v-128c0-17.673 14.327-32 32-32s32 14.327 32 32v128h128c17.673 0 32 14.327 32 32s-14.327 32-32 32h-128v128z" />
<glyph unicode="&#xe922;" glyph-name="ic-dashboard-24" d="M85.333 704v-53.333c0-59.739 0-89.609 11.626-112.426 10.227-20.071 26.545-36.387 46.615-46.614 22.817-11.627 52.687-11.627 112.426-11.627h53.333c59.739 0 89.609 0 112.426 11.627 20.071 10.227 36.387 26.543 46.614 46.614 11.627 22.817 11.627 52.687 11.627 112.426v53.333c0 59.739 0 89.609-11.627 112.426-10.227 20.070-26.543 36.388-46.614 46.615-22.817 11.626-52.687 11.626-112.426 11.626h-53.333c-59.739 0-89.609 0-112.426-11.626-20.070-10.227-36.388-26.545-46.615-46.615-11.626-22.817-11.626-52.687-11.626-112.426zM149.333 742.4c0 23.895 0 35.843 4.65 44.97 4.091 8.028 10.618 14.555 18.646 18.646 9.127 4.65 21.075 4.65 44.97 4.65h130.133c23.895 0 35.843 0 44.97-4.65 8.028-4.091 14.555-10.618 18.646-18.646 4.65-9.127 4.65-21.075 4.65-44.97v-130.133c0-23.895 0-35.843-4.65-44.97-4.091-8.028-10.618-14.555-18.646-18.646-9.127-4.65-21.075-4.65-44.97-4.65h-130.133c-23.895 0-35.843 0-44.97 4.65-8.028 4.091-14.555 10.618-18.646 18.646-4.65 9.127-4.65 21.075-4.65 44.97v130.133zM85.333 245.333v-53.333c0-59.738 0-89.609 11.626-112.427 10.227-20.070 26.545-36.386 46.615-46.613 22.817-11.627 52.687-11.627 112.426-11.627h53.333c59.739 0 89.609 0 112.426 11.627 20.071 10.227 36.387 26.543 46.614 46.613 11.627 22.818 11.627 52.689 11.627 112.427v53.333c0 59.738 0 89.609-11.627 112.427-10.227 20.070-26.543 36.386-46.614 46.613-22.817 11.627-52.687 11.627-112.426 11.627h-53.333c-59.739 0-89.609 0-112.426-11.627-20.070-10.227-36.388-26.543-46.615-46.613-11.626-22.818-11.626-52.689-11.626-112.427zM149.333 283.733c0 23.898 0 35.844 4.65 44.971 4.091 8.030 10.618 14.554 18.646 18.645 9.127 4.651 21.075 4.651 44.97 4.651h130.133c23.895 0 35.843 0 44.97-4.651 8.028-4.092 14.555-10.615 18.646-18.645 4.65-9.126 4.65-21.073 4.65-44.971v-130.133c0-23.898 0-35.844-4.65-44.971-4.091-8.030-10.618-14.554-18.646-18.645-9.127-4.651-21.075-4.651-44.97-4.651h-130.133c-23.895 0-35.843 0-44.97 4.651-8.028 4.092-14.555 10.615-18.646 18.645-4.65 9.126-4.65 21.073-4.65 44.971v130.133zM555.627 816.426c10.227 20.070 26.543 36.388 46.613 46.615 22.818 11.626 52.689 11.626 112.427 11.626h53.333c59.738 0 89.609 0 112.427-11.626 20.070-10.227 36.386-26.545 46.613-46.615 11.627-22.817 11.627-52.687 11.627-112.426v-53.333c0-59.739 0-89.609-11.627-112.426-10.227-20.071-26.543-36.387-46.613-46.614-22.818-11.627-52.689-11.627-112.427-11.627h-53.333c-59.738 0-89.609 0-112.427 11.627-20.070 10.227-36.386 26.543-46.613 46.614-11.627 22.817-11.627 52.687-11.627 112.426v53.333c0 59.739 0 89.609 11.627 112.426zM612.651 787.37c-4.651-9.127-4.651-21.075-4.651-44.97v-130.133c0-23.895 0-35.843 4.651-44.97 4.092-8.028 10.615-14.555 18.645-18.646 9.126-4.65 21.073-4.65 44.971-4.65h130.133c23.898 0 35.844 0 44.971 4.65 8.030 4.091 14.554 10.618 18.645 18.646 4.651 9.127 4.651 21.075 4.651 44.97v130.133c0 23.895 0 35.843-4.651 44.97-4.092 8.028-10.615 14.555-18.645 18.646-9.126 4.65-21.073 4.65-44.971 4.65h-130.133c-23.898 0-35.844 0-44.971-4.65-8.030-4.091-14.554-10.618-18.645-18.646zM544 245.333v-53.333c0-59.738 0-89.609 11.627-112.427 10.227-20.070 26.543-36.386 46.613-46.613 22.818-11.627 52.689-11.627 112.427-11.627h53.333c59.738 0 89.609 0 112.427 11.627 20.070 10.227 36.386 26.543 46.613 46.613 11.627 22.818 11.627 52.689 11.627 112.427v53.333c0 59.738 0 89.609-11.627 112.427-10.227 20.070-26.543 36.386-46.613 46.613-22.818 11.627-52.689 11.627-112.427 11.627h-53.333c-59.738 0-89.609 0-112.427-11.627-20.070-10.227-36.386-26.543-46.613-46.613-11.627-22.818-11.627-52.689-11.627-112.427zM608 283.733c0 23.898 0 35.844 4.651 44.971 4.092 8.030 10.615 14.554 18.645 18.645 9.126 4.651 21.073 4.651 44.971 4.651h130.133c23.898 0 35.844 0 44.971-4.651 8.030-4.092 14.554-10.615 18.645-18.645 4.651-9.126 4.651-21.073 4.651-44.971v-130.133c0-23.898 0-35.844-4.651-44.971-4.092-8.030-10.615-14.554-18.645-18.645-9.126-4.651-21.073-4.651-44.971-4.651h-130.133c-23.898 0-35.844 0-44.971 4.651-8.030 4.092-14.554 10.615-18.645 18.645-4.651 9.126-4.651 21.073-4.651 44.971v130.133z" />
<glyph unicode="&#xe923;" glyph-name="ic-trash-bin-24" d="M512 853.333c58.91 0 106.667-47.756 106.667-106.667h-213.333c0 58.91 47.757 106.667 106.667 106.667zM682.667 746.667c0 94.257-76.412 170.667-170.667 170.667-94.257 0-170.667-76.41-170.667-170.667h-224c-17.673 0-32-14.327-32-32s14.327-32 32-32h53.333v-388.267c0-95.582 0-143.373 18.601-179.883 16.363-32.111 42.471-58.219 74.584-74.581 36.508-18.603 84.299-18.603 179.881-18.603h136.533c95.582 0 143.373 0 179.883 18.603 32.111 16.363 58.219 42.47 74.581 74.581 18.603 36.51 18.603 84.301 18.603 179.883v388.267h53.333c17.673 0 32 14.327 32 32s-14.327 32-32 32h-224zM234.667 256v426.667h554.667v-426.667c0-59.738 0-89.609-11.627-112.427-10.227-20.070-26.543-36.386-46.613-46.613-22.818-11.627-52.689-11.627-112.427-11.627h-213.333c-59.739 0-89.609 0-112.426 11.627-20.070 10.227-36.388 26.543-46.615 46.613-11.626 22.818-11.626 52.689-11.626 112.427zM416 533.333c-17.673 0-32-14.327-32-32v-234.667c0-17.673 14.327-32 32-32s32 14.327 32 32v234.667c0 17.673-14.327 32-32 32zM640 501.333v-234.667c0-17.673-14.327-32-32-32s-32 14.327-32 32v234.667c0 17.673 14.327 32 32 32s32-14.327 32-32z" />
<glyph unicode="&#xe924;" glyph-name="ic-xmark-small-24" d="M286.706 673.294c12.497 12.497 32.758 12.497 45.255 0l180.039-180.038 180.041 180.038c12.497 12.497 32.755 12.497 45.252 0s12.497-32.758 0-45.255l-180.036-180.039 180.036-180.041c12.497-12.497 12.497-32.755 0-45.252s-32.755-12.497-45.252 0l-180.041 180.036-180.039-180.036c-12.497-12.497-32.758-12.497-45.255 0s-12.497 32.755 0 45.252l180.037 180.041-180.037 180.039c-12.497 12.497-12.497 32.758 0 45.255z" />
<glyph unicode="&#xe925;" glyph-name="ic-xmark-24" d="M222.706 737.294c12.497 12.497 32.758 12.497 45.255 0l244.039-244.038 244.041 244.038c12.497 12.497 32.755 12.497 45.252 0s12.497-32.758 0-45.255l-244.036-244.039 244.036-244.041c12.497-12.497 12.497-32.755 0-45.252s-32.755-12.497-45.252 0l-244.041 244.036-244.039-244.036c-12.497-12.497-32.758-12.497-45.255 0s-12.497 32.755 0 45.252l244.038 244.041-244.038 244.039c-12.497 12.497-12.497 32.758 0 45.255z" />
<glyph unicode="&#xe926;" glyph-name="ic-profile-24" d="M767.117 221.227c-72.943 48.909-160.695 77.44-255.117 77.44-94.42 0-182.176-28.531-255.118-77.44-53.633 60.292-86.216 139.729-86.216 226.773 0 188.513 152.82 341.333 341.333 341.333s341.333-152.82 341.333-341.333c0-87.044-32.58-166.481-86.217-226.773zM718.647 176.307c-57.361-43.695-128.973-69.641-206.647-69.641s-149.287 25.946-206.648 69.641c60.105 37.009 130.885 58.359 206.648 58.359s146.543-21.35 206.647-58.359zM512 42.667c223.859 0 405.333 181.474 405.333 405.333s-181.474 405.333-405.333 405.333c-223.86 0-405.333-181.474-405.333-405.333s181.474-405.333 405.333-405.333zM512 426.667c-47.13 0-85.333 38.204-85.333 85.333s38.204 85.333 85.333 85.333 85.333-38.205 85.333-85.333c0-47.13-38.204-85.333-85.333-85.333zM512 362.667c82.475 0 149.333 66.859 149.333 149.333s-66.859 149.333-149.333 149.333c-82.475 0-149.333-66.859-149.333-149.333s66.859-149.333 149.333-149.333z" />
<glyph unicode="&#xe927;" glyph-name="ic-tokens-24" d="M352 714.667c-147.276 0-266.667-119.391-266.667-266.667s119.391-266.667 266.667-266.667c147.277 0 266.667 119.39 266.667 266.667s-119.39 266.667-266.667 266.667zM21.333 448c0 182.622 148.044 330.667 330.667 330.667 58.039 0 112.585-14.953 160-41.217 47.411 26.264 101.956 41.217 159.996 41.217 182.622 0 330.667-148.044 330.667-330.667s-148.045-330.667-330.667-330.667c-58.039 0-112.585 14.955-159.996 41.216-47.415-26.261-101.961-41.216-160-41.216-182.622 0-330.667 148.045-330.667 330.667zM682.667 448c0-98.304-42.897-186.586-110.989-247.155 30.967-12.582 64.832-19.511 100.318-19.511 147.277 0 266.667 119.39 266.667 266.667s-119.39 266.667-266.667 266.667c-35.486 0-69.35-6.931-100.318-19.514 68.092-60.567 110.989-148.851 110.989-247.153zM384.042 544c0 17.673-14.327 32-32 32s-32-14.327-32-32v-192c0-17.673 14.327-32 32-32s32 14.327 32 32v192z" />
<glyph unicode="&#xe928;" glyph-name="ic-coins-24" d="M213.333 640c0-24.979 21.946-56.828 78.788-84.332 54.617-26.426 132.316-43.668 219.879-43.668 87.565 0 165.261 17.242 219.878 43.668 56.841 27.504 78.788 59.353 78.788 84.332s-21.948 56.828-78.788 84.332c-54.618 26.427-132.314 43.668-219.878 43.668-87.563 0-165.262-17.241-219.879-43.668-56.842-27.504-78.788-59.353-78.788-84.332zM149.333 640v-384c0-63.386 52.076-111.539 114.912-141.943 65.062-31.479 152.695-50.057 247.755-50.057 95.061 0 182.694 18.577 247.753 50.057 62.839 30.404 114.914 78.558 114.914 141.943v384c0 63.387-52.075 111.537-114.914 141.942-65.058 31.481-152.691 50.058-247.753 50.058-95.059 0-182.693-18.577-247.755-50.058-62.836-30.405-114.912-78.555-114.912-141.942zM810.667 528.9v-80.9c0-24.977-21.948-56.828-78.788-84.331-54.618-26.428-132.314-43.669-219.878-43.669-87.563 0-165.262 17.242-219.879 43.669-56.842 27.503-78.788 59.354-78.788 84.331v80.9c15.397-11.729 32.703-22.033 50.912-30.844 65.062-31.479 152.695-50.057 247.755-50.057s182.694 18.577 247.753 50.057c18.21 8.811 35.516 19.115 50.914 30.844zM213.333 256v80.9c15.397-11.729 32.703-22.033 50.912-30.844 65.062-31.479 152.695-50.057 247.755-50.057 95.061 0 182.694 18.577 247.753 50.057 18.21 8.811 35.516 19.115 50.914 30.844v-80.9c0-24.977-21.948-56.828-78.788-84.331-54.618-26.428-132.314-43.669-219.878-43.669s-165.262 17.242-219.879 43.669c-56.842 27.503-78.788 59.354-78.788 84.331z" />
<glyph unicode="&#xe929;" glyph-name="ic-statistics-24" d="M352 789.333c17.673 0 32-14.327 32-32v-618.667c0-17.673-14.327-32-32-32s-32 14.327-32 32v618.667c0 17.673 14.327 32 32 32zM202.667 362.667c17.673 0 32-14.327 32-32v-192c0-17.673-14.327-32-32-32s-32 14.327-32 32v192c0 17.673 14.327 32 32 32zM533.333 544c0 17.673-14.327 32-32 32s-32-14.327-32-32v-405.333c0-17.673 14.327-32 32-32s32 14.327 32 32v405.333zM650.667 448c17.673 0 32-14.327 32-32v-277.333c0-17.673-14.327-32-32-32s-32 14.327-32 32v277.333c0 17.673 14.327 32 32 32zM832 586.667c0 17.673-14.327 32-32 32s-32-14.327-32-32v-448c0-17.673 14.327-32 32-32s32 14.327 32 32v448z" />
<glyph unicode="&#xe92a;" glyph-name="ic-promotion-24" d="M635.486 208.742l158.020 157.935c22.153 22.14 33.225 33.207 41.148 46.131 7.019 11.452 12.194 23.94 15.334 37.005 3.537 14.737 3.537 30.396 3.537 61.717v141.26c0 47.791 0 71.686-9.301 89.94-8.179 16.056-21.235 29.111-37.291 37.292-18.253 9.301-42.15 9.301-89.941 9.301h-141.491c-31.305 0-46.959 0-61.692-3.537-13.060-3.136-25.545-8.307-36.996-15.325l-33.442 54.569c17.182 10.527 35.908 18.284 55.501 22.988 22.298 5.353 45.257 5.332 71.3 5.308l149.060-0.003c21.969 0.002 42.15 0.003 59.021-1.375 18.185-1.486 38.084-4.888 57.737-14.901 28.1-14.317 50.944-37.162 65.259-65.261 10.014-19.653 13.419-39.55 14.903-57.737 1.378-16.869 1.378-37.048 1.374-59.020v-143.499l0.004-5.333c0.026-26.052 0.047-49.020-5.312-71.326-4.706-19.597-12.467-38.332-23.002-55.514-11.989-19.558-28.25-35.78-46.69-54.178l-3.78-3.772-159.757-159.676c-23.859-23.846-44.437-44.416-62.775-59.977-19.354-16.422-40.375-30.98-66.219-39.373-38.558-12.518-80.090-12.514-118.643 0.017-25.844 8.397-46.862 22.963-66.211 39.39-18.333 15.561-38.908 36.139-62.758 59.989l-1.743 1.745-74.816 74.816c-23.857 23.855-44.439 44.433-60.005 62.771-16.43 19.354-30.997 40.375-39.396 66.223-12.529 38.562-12.529 80.102 0.001 118.665 8.399 25.847 22.967 46.869 39.397 66.224 15.567 18.336 36.148 38.915 60.005 62.77v0.001l163.375 163.375c18.397 18.43 34.616 34.68 54.169 46.663l33.442-54.569c-12.919-7.916-23.987-18.984-46.123-41.121l-157.865-157.859c-50.691-50.689-76.037-76.033-85.533-105.26-8.353-25.711-8.354-53.402-0.001-79.113 9.496-29.222 34.842-54.571 85.533-105.259l73.071-73.075c50.678-50.675 76.017-76.015 105.237-85.513 25.702-8.354 53.389-8.358 79.095-0.009 29.222 9.489 54.571 34.82 105.259 85.487zM736.192 725.324c-29.453 0-53.333-23.878-53.333-53.333s23.881-53.333 53.333-53.333c29.457 0 53.333 23.878 53.333 53.333s-23.876 53.333-53.333 53.333z" />
<glyph unicode="&#xe92b;" glyph-name="ic-connect-24" d="M821.333 469.333c17.673 0 32 14.327 32 32s-14.327 32-32 32h-178.743l244.036 244.039c12.497 12.497 12.497 32.758 0 45.255s-32.755 12.497-45.252 0l-244.041-244.039v178.745c0 17.673-14.327 32-32 32s-32-14.327-32-32v-256c0-17.673 14.327-32 32-32h256zM202.667 426.667c-17.673 0-32-14.327-32-32s14.327-32 32-32h178.745l-244.039-244.041c-12.497-12.497-12.497-32.755 0-45.252s32.758-12.497 45.255 0l244.039 244.036v-178.743c0-17.673 14.327-32 32-32s32 14.327 32 32v256c0 17.673-14.327 32-32 32h-256z" />
<glyph unicode="&#xe92c;" glyph-name="ic-wallet-24" d="M103.935 696.148c-14.857-29.16-17.848-65.519-18.45-127.679-0.1-1.032-0.151-2.077-0.151-3.136 0-0.872 0.035-1.735 0.103-2.589-0.103-14.129-0.103-29.556-0.103-46.477v-136.533c0-95.582 0-143.373 18.601-179.883 16.363-32.111 42.471-58.219 74.584-74.581 36.508-18.603 84.299-18.603 179.881-18.603h307.2c95.582 0 143.373 0 179.883 18.603 32.111 16.363 58.219 42.47 74.581 74.581 18.603 36.51 18.603 84.301 18.603 179.883v136.533c0 16.922 0 32.348-0.102 46.477 0.068 0.854 0.102 1.718 0.102 2.589 0 1.058-0.051 2.104-0.154 3.136-0.602 62.16-3.588 98.519-18.449 127.679-16.363 32.113-42.47 58.222-74.581 74.584-36.51 18.601-84.301 18.601-179.883 18.601h-307.2c-95.582 0-143.373 0-179.881-18.601-32.113-16.363-58.222-42.471-74.584-74.584zM149.333 341.333v192h725.333v-192c0-59.738 0-89.609-11.627-112.427-10.227-20.070-26.543-36.386-46.613-46.613-22.818-11.627-52.689-11.627-112.427-11.627h-384c-59.739 0-89.609 0-112.426 11.627-20.070 10.227-36.388 26.543-46.615 46.613-11.626 22.818-11.626 52.689-11.626 112.427zM149.569 597.333c0.629 32.837 2.935 53.163 11.39 69.759 10.227 20.070 26.545 36.388 46.615 46.615 22.817 11.626 52.687 11.626 112.426 11.626h384c59.738 0 89.609 0 112.427-11.626 20.070-10.227 36.386-26.545 46.613-46.615 8.457-16.596 10.761-36.922 11.392-69.759h-724.863zM629.333 341.333c-17.673 0-32-14.327-32-32s14.327-32 32-32h106.667c17.673 0 32 14.327 32 32s-14.327 32-32 32h-106.667z" />
<glyph unicode="&#xe92d;" glyph-name="ic-incoming-24" d="M853.333 448c0 177.722-135.825 323.721-309.333 339.853v-401.263l105.374 105.37c12.497 12.497 32.755 12.497 45.252 0s12.497-32.755 0-45.252l-160-160c-12.497-12.497-32.755-12.497-45.252 0l-160.001 160c-12.497 12.497-12.497 32.755 0 45.252s32.758 12.497 45.255 0l105.373-105.37v401.263c-173.508-16.132-309.333-162.131-309.333-339.853 0-188.514 152.82-341.333 341.333-341.333s341.333 152.819 341.333 341.333zM917.333 448c0-223.859-181.474-405.333-405.333-405.333s-405.333 181.474-405.333 405.333c0 223.86 181.474 405.333 405.333 405.333s405.333-181.474 405.333-405.333z" />
<glyph unicode="&#xe92e;" glyph-name="ic-code-24" d="M594.176 788.44c17.178-4.147 27.746-21.435 23.599-38.615l-149.333-618.668c-4.147-17.178-21.436-27.742-38.618-23.599-17.179 4.147-27.744 21.436-23.597 38.618l149.332 618.666c4.147 17.18 21.436 27.745 38.618 23.598zM242.982 676.428c-14.228 10.484-34.26 7.448-44.744-6.779l-149.333-202.667c-8.318-11.29-8.318-26.675 0-37.965l149.333-202.667c10.484-14.229 30.516-17.263 44.744-6.78s17.263 30.515 6.779 44.745l-135.346 183.684 135.346 183.684c10.484 14.228 7.448 34.26-6.779 44.744zM825.762 669.649c-10.483 14.228-30.515 17.263-44.745 6.78s-17.263-30.516-6.78-44.744l135.347-183.685-135.347-183.684c-10.483-14.229-7.45-34.261 6.78-44.745s34.261-7.445 44.745 6.78l149.333 202.667c8.316 11.29 8.316 26.675 0 37.965l-149.333 202.667z" />
<glyph unicode="&#xe930;" glyph-name="ic-placeholder-20" d="M204.8 960h614.4c113.108 0 204.8-91.692 204.8-204.8v-614.4c0-113.108-91.692-204.8-204.8-204.8h-614.4c-113.108 0-204.8 91.692-204.8 204.8v614.4c0 113.108 91.692 204.8 204.8 204.8z" />
<glyph unicode="&#xe931;" glyph-name="ic-chevron-left-20" d="M600.407 695.241c-16.369 13.482-40.571 11.14-54.052-5.231l-179.199-217.6c-11.677-14.18-11.677-34.645 0-48.822l179.199-217.6c13.481-16.369 37.683-18.714 54.052-5.233 16.374 13.486 18.714 37.683 5.233 54.057l-159.096 193.188 159.096 193.188c13.481 16.371 11.141 40.571-5.233 54.053z" />
<glyph unicode="&#xe932;" glyph-name="ic-chevron-right-20" d="M423.588 695.241c16.371 13.482 40.571 11.14 54.053-5.231l179.198-217.6c11.679-14.18 11.679-34.645 0-48.822l-179.198-217.6c-13.482-16.369-37.683-18.714-54.053-5.233-16.371 13.486-18.713 37.683-5.231 54.057l159.097 193.188-159.097 193.188c-13.482 16.371-11.14 40.571 5.231 54.053z" />
<glyph unicode="&#xe933;" glyph-name="ic-xmark-20" d="M216.047 743.953c14.996 14.996 39.31 14.996 54.306 0l241.555-241.554 241.556 241.554c14.996 14.996 39.306 14.996 54.303 0s14.996-39.31 0-54.306l-241.551-241.554 241.551-241.557c14.996-14.996 14.996-39.306 0-54.303s-39.306-14.996-54.303 0l-241.556 241.551-241.555-241.551c-14.996-14.996-39.31-14.996-54.306 0s-14.996 39.306 0 54.303l241.555 241.557-241.555 241.554c-14.996 14.996-14.996 39.31 0 54.306z" />
<glyph unicode="&#xe934;" glyph-name="ic-copy-20" d="M348.158 38.405h122.88c86.023 0 129.036 0 161.891 16.742 28.902 14.725 52.403 38.226 67.128 67.128 13.85 27.182 16.241 61.312 16.655 121.006 59.699 0.41 93.834 2.801 121.021 16.655 28.897 14.725 52.398 38.221 67.123 67.123 16.742 32.86 16.742 75.868 16.742 161.894v122.88c0 86.024 0 129.036-16.742 161.893-14.725 28.902-38.226 52.4-67.123 67.126-32.86 16.741-75.873 16.741-161.894 16.741h-122.88c-86.025 0-129.037 0-161.894-16.741-28.901-14.726-52.399-38.224-67.125-67.126-13.851-27.183-16.242-61.317-16.655-121.007-59.698-0.413-93.835-2.804-121.020-16.655-28.902-14.726-52.4-38.224-67.126-67.126-16.741-32.857-16.741-75.869-16.741-161.894v-122.88c0-86.021 0-129.034 16.741-161.889 14.726-28.902 38.224-52.403 67.126-67.128 32.857-16.742 75.869-16.742 161.893-16.742zM716.8 319.995v87.050c0 86.025 0 129.037-16.742 161.894-14.725 28.902-38.226 52.4-67.128 67.126-32.855 16.741-75.868 16.741-161.891 16.741h-87.039v5.108c0 43.012 0 64.518 8.371 80.947 7.363 14.451 19.112 26.2 33.563 33.563 16.429 8.371 37.935 8.371 80.947 8.371h215.041c43.013 0 64.517 0 80.947-8.371 14.449-7.363 26.199-19.112 33.562-33.563 8.371-16.429 8.371-37.935 8.371-80.947v-215.039c0-43.013 0-64.517-8.371-80.947-7.363-14.449-19.113-26.199-33.562-33.562-16.43-8.371-37.934-8.371-80.947-8.371h-5.12zM302.078 115.205c-43.012 0-64.518 0-80.947 8.371-14.451 7.363-26.2 19.113-33.563 33.562-8.371 16.43-8.371 37.934-8.371 80.947v215.041c0 43.012 0 64.518 8.371 80.947 7.363 14.451 19.112 26.2 33.563 33.563 16.429 8.371 37.935 8.371 80.947 8.371h215.042c43.008 0 64.517 0 80.947-8.371 14.449-7.363 26.199-19.112 33.562-33.563 8.371-16.429 8.371-37.935 8.371-80.947v-215.041c0-43.013 0-64.517-8.371-80.947-7.363-14.449-19.113-26.199-33.562-33.562-16.43-8.371-37.939-8.371-80.947-8.371h-215.042z" />
<glyph unicode="&#xe935;" glyph-name="ic-refresh-16" d="M848 592c26.509 0 48 21.491 48 48v208c0 26.509-21.491 48-48 48s-48-21.491-48-48v-78.008c-76.397 68.372-177.331 110.008-288 110.008-238.587 0-432-193.413-432-432 0-26.509 21.491-48 48-48s48 21.491 48 48c0 185.568 150.433 336 336 336 91.524 0 174.522-36.569 235.155-96h-107.155c-26.506 0-47.997-21.491-47.997-48s21.491-48 47.997-48h208zM896 496c26.509 0 48-21.491 48-48 0-238.586-193.414-432-432-432-110.669 0-211.601 41.638-288 110.010v-78.010c0-26.509-21.491-48-48-48s-48 21.491-48 48v208c0 26.509 21.491 48 48 48h207.997c26.509 0 48-21.491 48-48s-21.491-48-48-48h-107.155c60.639-59.43 143.634-96 235.158-96 185.568 0 336 150.432 336 336 0 26.509 21.491 48 48 48z" />
<glyph unicode="&#xe936;" glyph-name="ic-enter-16" d="M820.947 793.789c-26.509 0-48-21.49-48-48v-175.752c0-36.636-0.038-61.225-1.587-80.161-1.498-18.376-4.179-27.162-7.136-32.958-7.667-15.053-19.904-27.292-34.957-34.961-5.798-2.953-14.586-5.633-32.96-7.135-18.938-1.548-43.526-1.585-80.162-1.585h-297.203l133.083 133.084c18.745 18.745 18.745 49.137 0 67.882s-49.137 18.745-67.882 0l-215.024-215.025c-9.002-9.002-14.060-21.211-14.060-33.941s5.057-24.94 14.060-33.941l215.024-215.027c18.746-18.746 49.137-18.746 67.882 0s18.745 49.139 0 67.885l-133.083 133.082h299.151c34.189 0 62.72 0 86.029 1.907 24.314 1.984 47.142 6.279 68.723 17.277 33.12 16.874 60.045 43.798 76.915 76.915 11.002 21.585 15.296 44.41 17.28 68.723 1.907 23.311 1.907 51.845 1.907 86.031v177.7c0 26.51-21.491 48-48 48z" />
<glyph unicode="&#xe937;" glyph-name="ic-empty-16" d="M443.986 890.863c22.205 3.386 44.921 5.137 68.014 5.137s45.809-1.751 68.014-5.137c26.207-3.995 44.213-28.479 40.218-54.685s-28.479-44.213-54.686-40.218c-17.433 2.657-35.313 4.040-53.546 4.040s-36.113-1.382-53.546-4.040c-26.207-3.996-50.691 14.011-54.685 40.218s14.011 50.691 40.218 54.685zM314.077 798.974c15.697-21.363 11.103-51.406-10.259-67.103-28.904-21.238-54.451-46.785-75.689-75.689-15.697-21.363-45.74-25.956-67.103-10.259s-25.956 45.74-10.259 67.103c26.998 36.743 59.464 69.21 96.207 96.207 21.363 15.697 51.405 11.104 67.103-10.259zM709.926 798.974c15.693 21.363 45.734 25.956 67.098 10.259 36.742-26.998 69.21-59.464 96.211-96.207 15.693-21.363 11.104-51.405-10.259-67.103s-51.405-11.103-67.104 10.259c-21.235 28.904-46.784 54.451-75.686 75.689-21.363 15.697-25.958 45.74-10.259 67.103zM123.822 556.232c26.207-3.996 44.213-28.479 40.218-54.686-2.657-17.433-4.040-35.313-4.040-53.546s1.382-36.113 4.040-53.546c3.996-26.207-14.011-50.691-40.218-54.685s-50.691 14.011-54.685 40.218c-3.386 22.205-5.137 44.921-5.137 68.014s1.751 45.809 5.137 68.014c3.995 26.207 28.479 44.213 54.685 40.218zM900.179 556.232c26.208 3.996 50.688-14.011 54.682-40.218 3.386-22.205 5.139-44.921 5.139-68.014s-1.754-45.809-5.139-68.014c-3.994-26.207-28.474-44.213-54.682-40.218s-44.211 28.479-40.218 54.686c2.656 17.433 4.038 35.313 4.038 53.546s-1.382 36.113-4.038 53.546c-3.994 26.207 14.010 50.691 40.218 54.685zM161.026 250.074c21.363 15.699 51.406 11.104 67.103-10.259 21.238-28.902 46.785-54.451 75.689-75.686 21.363-15.699 25.956-45.741 10.259-67.104s-45.74-25.952-67.103-10.259c-36.743 27.002-69.21 59.469-96.207 96.211-15.697 21.363-11.104 51.405 10.259 67.098zM862.976 250.074c21.363-15.693 25.952-45.734 10.259-67.098-27.002-36.742-59.469-69.21-96.211-96.211-21.363-15.693-51.405-11.104-67.098 10.259-15.699 21.363-11.104 51.405 10.259 67.104 28.902 21.235 54.451 46.784 75.686 75.686 15.699 21.363 45.741 25.958 67.104 10.259zM403.768 59.821c3.996 26.208 28.479 44.211 54.686 40.218 17.433-2.656 35.313-4.038 53.546-4.038s36.113 1.382 53.546 4.038c26.207 3.994 50.691-14.010 54.685-40.218s-14.011-50.688-40.218-54.682c-22.205-3.386-44.921-5.139-68.014-5.139s-45.809 1.754-68.014 5.139c-26.207 3.994-44.213 28.474-40.218 54.682z" />
<glyph unicode="&#xe938;" d="M960 448c0-247.424-200.576-448-448-448s-448 200.576-448 448c0 247.424 200.576 448 448 448s448-200.576 448-448z" />
<glyph unicode="&#xe939;" d="M512 576c35.346 0 64 28.654 64 64s-28.654 64-64 64c-35.346 0-64-28.654-64-64s28.654-64 64-64zM512 512c-26.509 0-48-21.491-48-48v-224c0-26.509 21.491-48 48-48s48 21.491 48 48v224c0 26.509-21.491 48-48 48z" />
<glyph unicode="&#xe93a;" glyph-name="ic-information-stroke-circle-16" d="M512 96c-194.404 0-352 157.594-352 352 0 194.404 157.596 352 352 352 194.406 0 352-157.596 352-352 0-194.406-157.594-352-352-352zM512 0c247.424 0 448 200.576 448 448s-200.576 448-448 448c-247.423 0-448-200.577-448-448s200.577-448 448-448zM576 639.943c0-35.346-28.654-64-64-64s-64 28.654-64 64c0 35.347 28.654 64 64 64s64-28.653 64-64zM512 512c-26.509 0-48-21.491-48-48v-224c0-26.509 21.491-48 48-48s48 21.491 48 48v224c0 26.509-21.491 48-48 48z" />
<glyph unicode="&#xe93b;" glyph-name="ic-nft-16" d="M383.432 896l-6.156 0.004c-32.15 0.032-58.708 0.058-83.272-8.031-21.565-7.101-41.373-18.71-58.106-34.058-19.059-17.48-32.013-40.665-47.694-68.731l-3.004-5.373-126.526-225.93c-15.079-26.867-27.539-49.068-32.586-73.437-4.432-21.403-4.432-43.487 0-64.89 5.046-24.369 17.507-46.571 32.586-73.437l2.877-5.129 126.653-226.173c15.681-28.064 28.635-51.251 47.694-68.73 16.733-15.347 36.541-26.957 58.106-34.061 24.564-8.090 51.123-8.064 83.272-8.032h269.444c32.154-0.032 58.707-0.058 83.277 8.032 21.562 7.104 41.37 18.714 58.106 34.061 19.059 17.478 32.013 40.666 47.693 68.73l3.002 5.376 126.528 225.927c15.078 26.866 27.539 49.068 32.582 73.436 4.435 21.403 4.435 43.487 0 64.889-5.043 24.369-17.504 46.57-32.582 73.437l-2.88 5.129-126.65 226.173c-15.68 28.067-28.634 51.251-47.693 68.732-16.736 15.347-36.544 26.957-58.106 34.058-24.57 8.089-51.123 8.062-83.277 8.031l-263.288-0.004zM324.029 796.789c8.012 2.639 17.878 3.211 59.404 3.211h257.131c41.53 0 51.392-0.572 59.405-3.211 8.627-2.84 16.55-7.484 23.245-13.623 6.214-5.702 11.539-14.031 31.827-50.262l123.648-220.8c19.418-34.68 23.565-43.172 25.216-51.126 1.773-8.561 1.773-17.395 0-25.956-1.651-7.955-5.798-16.446-25.216-51.126l-123.648-220.798c-20.288-36.23-25.613-44.563-31.827-50.266-6.694-6.138-14.618-10.784-23.245-13.619-8.013-2.643-17.875-3.213-59.405-3.213h-257.131c-41.525 0-51.391 0.57-59.404 3.213-8.627 2.835-16.55 7.482-23.243 13.619-6.217 5.702-11.537 14.035-31.827 50.266l-123.649 220.797c-19.421 34.68-23.57 43.172-25.217 51.127-1.773 8.561-1.773 17.395 0 25.956 1.647 7.955 5.796 16.446 25.217 51.127l123.649 220.8c20.289 36.23 25.61 44.559 31.827 50.261 6.693 6.139 14.616 10.783 23.243 13.623zM343.005 516.707c22.958 13.254 52.314 5.389 65.569-17.569l96-166.277c13.255-22.96 5.389-52.317-17.569-65.571s-52.314-5.389-65.569 17.574l-96 166.274c-13.255 22.958-5.389 52.314 17.569 65.569zM536.995 628.707c22.958 13.254 52.314 5.389 65.569-17.569l96.003-166.277c13.254-22.958 5.389-52.314-17.574-65.569-22.957-13.254-52.312-5.389-65.567 17.569l-96 166.277c-13.255 22.958-5.389 52.314 17.569 65.569z" />
<glyph unicode="&#xe93d;" glyph-name="ic-xmark-circle-16" d="M512 0c-247.423 0-448 200.576-448 448s200.577 448 448 448c247.424 0 448-200.577 448-448s-200.576-448-448-448zM384.164 643.719c-18.745 18.745-49.137 18.745-67.882 0s-18.745-49.137 0-67.882l127.837-127.837-127.837-127.837c-18.745-18.742-18.745-49.136 0-67.882s49.137-18.746 67.882 0l127.837 127.836 127.836-127.836c18.742-18.746 49.136-18.746 67.882 0s18.746 49.139 0 67.882l-127.836 127.837 127.836 127.837c18.746 18.745 18.746 49.137 0 67.882s-49.139 18.745-67.882 0l-127.836-127.837-127.837 127.837z" />
<glyph unicode="&#xe93e;" glyph-name="ic-time-16" d="M864 448c0 194.404-157.594 352-352 352-194.404 0-352-157.596-352-352 0-194.406 157.596-352 352-352 194.406 0 352 157.594 352 352zM960 448c0-247.424-200.576-448-448-448s-448 200.576-448 448c0 247.423 200.577 448 448 448s448-200.577 448-448zM544 592c0 26.509-21.491 48-48 48s-48-21.491-48-48v-144c0-12.73 5.057-24.94 14.059-33.941l112-111.998c18.745-18.746 49.137-18.746 67.88 0 18.746 18.743 18.746 49.135 0 67.88l-97.939 97.941v124.118z" />
<glyph unicode="&#xe93f;" glyph-name="ic-doc-16" d="M543.939 944h-110.793c-52.022 0-93.981 0.001-127.96-2.775-34.984-2.858-65.713-8.897-94.143-23.383-45.159-23.010-81.875-59.725-104.884-104.884-14.486-28.429-20.525-59.159-23.384-94.143-2.776-33.978-2.776-75.937-2.775-127.958v-285.711c-0.001-52.019-0.001-93.984 2.775-127.962 2.859-34.982 8.898-65.709 23.384-94.144 23.009-45.158 59.725-81.875 104.884-104.883 28.43-14.483 59.159-20.525 94.143-23.379 33.978-2.778 75.937-2.778 127.958-2.778h157.711c52.024 0 93.983 0 127.96 2.778 34.982 2.854 65.709 8.896 94.144 23.379 45.158 23.008 81.875 59.725 104.883 104.883 14.483 28.435 20.525 59.162 23.379 94.144 2.778 33.978 2.778 75.936 2.778 127.962v253.419c0.026 15.98 0.045 31.274-3.539 46.179-3.136 13.061-8.307 25.547-15.322 36.999-8.013 13.070-18.835 23.871-30.15 35.156l-218.086 218.088c-11.29 11.314-22.086 22.142-35.162 30.151-11.45 7.018-23.936 12.19-36.997 15.325-14.905 3.578-30.199 3.559-46.179 3.54l-14.627-0.003zM496 848v-149.185c-0.001-25.835-0.001-48.066 1.494-66.365 1.576-19.297 5.052-38.408 14.411-56.776 13.99-27.457 36.312-49.779 63.769-63.769 18.368-9.359 37.479-12.835 56.776-14.411 18.302-1.496 40.529-1.494 66.366-1.494h149.184v-217.6c0-80.646 0-120.973-15.693-151.776-13.805-27.091-35.84-49.126-62.931-62.931-30.803-15.693-71.13-15.693-151.776-15.693h-211.2c-80.648 0-120.972 0-151.775 15.693-27.095 13.805-49.124 35.84-62.93 62.931-15.695 30.803-15.695 71.13-15.695 151.776v339.2c0 80.648 0 120.972 15.695 151.775 13.805 27.095 35.835 49.124 62.93 62.93 30.803 15.695 71.127 15.695 151.775 15.695h89.6zM843.021 592h-174.221c-26.88 0-40.324 0-50.591 5.232-9.032 4.602-16.375 11.945-20.977 20.977-5.232 10.268-5.232 23.709-5.232 50.591v174.221c2.054-1.339 5.101-4.005 19.549-18.453l213.020-213.019c14.445-14.448 17.114-17.496 18.451-19.549z" />
<glyph unicode="&#xe940;" glyph-name="ic-telegram-16" d="M70.395 506.984c274.877 119.76 458.172 198.713 549.884 236.859 261.859 108.915 316.266 127.835 351.734 128.46 7.795 0.137 25.242-1.796 36.538-10.963 9.536-7.741 12.16-18.196 13.421-25.535 1.254-7.339 2.816-24.056 1.574-37.119-14.189-149.096-75.59-510.915-106.829-677.904-13.216-70.662-39.245-94.349-64.435-96.672-54.758-5.037-96.339 36.186-149.376 70.95-82.986 54.4-129.869 88.269-210.424 141.35-93.094 61.35-32.746 95.067 20.309 150.172 13.885 14.421 255.145 233.864 259.811 253.771 0.589 2.49 1.126 11.77-4.384 16.671-5.517 4.9-13.651 3.224-19.526 1.892-8.32-1.889-140.895-89.516-397.722-262.881-37.631-25.841-71.716-38.431-102.255-37.771-33.667 0.728-98.428 19.036-146.572 34.685-59.050 19.195-105.981 29.343-101.895 61.942 2.129 16.979 25.511 34.344 70.147 52.094z" />
<glyph unicode="&#xe941;" glyph-name="ic-arrow-down-16" d="M817.939 417.941c18.746-18.745 18.746-49.137 0-67.882l-271.998-271.998c-18.745-18.746-49.137-18.746-67.882 0l-272 271.998c-18.745 18.745-18.745 49.137 0 67.882s49.137 18.745 67.882 0l190.059-190.056v556.115c0 26.509 21.491 48 48 48s48-21.491 48-48v-556.115l190.061 190.056c18.746 18.745 49.133 18.745 67.878 0z" />
<glyph unicode="&#xe942;" glyph-name="ic-exclamationmark-triangle-16" d="M356.811 755.2c38.63 66.908 57.944 100.362 79.956 116.354 44.862 32.595 105.61 32.595 150.473 0 22.011-15.992 41.325-49.446 79.954-116.354l243.872-422.4c38.63-66.906 57.946-100.365 60.787-127.418 5.798-55.149-24.576-107.763-75.232-130.317-24.858-11.066-63.488-11.066-140.742-11.066h-487.748c-77.259 0-115.889 0-140.744 11.066-50.659 22.554-81.033 75.168-75.236 130.317 2.844 27.053 22.159 60.512 60.788 127.418l243.873 422.4zM576.003 256c0 35.347-28.654 64-64 64s-64-28.653-64-64c0-35.347 28.653-64 64-64s64 28.653 64 64zM512.003 704c-34.817 0-62.543-29.147-60.804-63.92l10.407-208.14c1.343-26.855 23.508-47.94 50.397-47.94s49.054 21.085 50.397 47.94l10.407 208.14c1.739 34.774-25.987 63.92-60.804 63.92z" />
<glyph unicode="&#xe943;" glyph-name="ic-gear-16" d="M511.999 639.999c-106.038 0-192-85.962-192-192s85.962-191.999 192-191.999c106.039 0 192.001 85.96 192.001 191.999s-85.962 192-192.001 192zM415.999 447.999c0 53.019 42.981 96 96 96s96-42.981 96-96c0-53.020-42.98-96.001-96-96.001s-96 42.981-96 96.001zM391.86 896.003c-37.24 0.029-66.499 0.052-93.483-8.833-23.722-7.811-45.511-20.582-63.917-37.464-20.937-19.202-35.213-44.742-53.383-77.248l-115.595-206.419c-17.459-31.121-31.181-55.582-36.725-82.351-4.875-23.543-4.875-47.836 0-71.379 5.543-26.769 19.266-51.229 36.725-82.351l115.595-206.419c18.17-32.506 32.446-58.048 53.383-77.248 18.406-16.883 40.195-29.651 63.917-37.466 26.984-8.883 56.243-8.858 93.483-8.832h240.276c37.239-0.026 66.5-0.051 93.482 8.832 23.725 7.814 45.51 20.582 63.917 37.466 20.941 19.206 35.213 44.742 53.382 77.248l115.597 206.42c17.459 31.121 31.181 55.581 36.723 82.351 4.877 23.542 4.877 47.835 0 71.377-5.542 26.769-19.264 51.229-36.723 82.351l-115.597 206.419c-18.17 32.507-32.442 58.047-53.382 77.249-18.406 16.881-40.192 29.652-63.917 37.464-26.982 8.885-56.243 8.862-93.482 8.833h-240.276zM328.403 795.986c10.45 3.441 23.048 4.013 70.034 4.013h227.124c46.99 0 59.585-0.573 70.036-4.013 10.784-3.551 20.685-9.356 29.050-17.029 8.109-7.437 14.765-18.148 37.722-59.145l109.312-195.2c21.978-39.244 27.405-50.017 29.549-60.39 2.221-10.701 2.221-21.743 0-32.445-2.144-10.373-7.571-21.146-29.549-60.39l-109.312-195.201c-22.957-40.998-29.613-51.706-37.722-59.142-8.365-7.674-18.266-13.478-29.050-17.030-10.451-3.443-23.046-4.013-70.036-4.013h-227.124c-46.987 0-59.584 0.57-70.034 4.013-10.783 3.552-20.687 9.357-29.053 17.030-8.108 7.437-14.763 18.144-37.721 59.142l-109.313 195.2c-21.977 39.245-27.404 50.017-29.552 60.391-2.216 10.701-2.216 21.743 0 32.445 2.148 10.374 7.575 21.147 29.552 60.391l109.313 195.2c22.958 40.996 29.613 51.708 37.721 59.144 8.366 7.674 18.27 13.478 29.053 17.029z" />
<glyph unicode="&#xe944;" glyph-name="ic-arrow-up-16" d="M206.059 478.059c-18.745 18.745-18.745 49.137 0 67.882l272 272c18.745 18.745 49.137 18.745 67.882 0l271.998-272c18.746-18.745 18.746-49.137 0-67.882s-49.133-18.745-67.878 0l-190.061 190.059v-556.118c0-26.509-21.491-48-48-48s-48 21.491-48 48v556.118l-190.059-190.059c-18.745-18.745-49.137-18.745-67.882 0z" />
<glyph unicode="&#xe945;" glyph-name="ic-placeholder-16" d="M256 960h512c141.385 0 256-114.615 256-256v-512c0-141.385-114.615-256-256-256h-512c-141.385 0-256 114.615-256 256v512c0 141.385 114.615 256 256 256z" />
<glyph unicode="&#xe946;" glyph-name="ic-code-16" d="M670.221 835.059c7.149 25.528-7.75 52.017-33.279 59.165s-52.017-7.752-59.164-33.28l-224-800.003c-7.148-25.523 7.752-52.013 33.28-59.162s52.017 7.75 59.164 33.28l223.999 800zM234.626 727.94c22.057-14.705 28.017-44.507 13.313-66.564l-142.25-213.375 142.25-213.377c14.705-22.054 8.744-51.859-13.313-66.56-22.058-14.707-51.859-8.742-66.564 13.312l-160 240c-10.749 16.123-10.749 37.128 0 53.251l160 240c14.705 22.057 44.507 28.017 66.564 13.313zM789.376 727.94c-22.061-14.705-28.019-44.507-13.312-66.564l142.246-213.375-142.246-213.377c-14.707-22.054-8.749-51.859 13.312-66.56 22.054-14.707 51.859-8.742 66.56 13.312l160 240c10.752 16.123 10.752 37.128 0 53.251l-160 240c-14.701 22.057-44.506 28.017-66.56 13.313z" />
<glyph unicode="&#xe947;" glyph-name="ic-tokens-16" d="M512 191.974c53.482-40.173 119.961-63.974 192-63.974 176.73 0 320 143.27 320 320s-143.27 320-320 320c-72.039 0-138.518-23.805-192-63.977-53.482 40.172-119.961 63.977-192 63.977-176.731 0-320-143.269-320-320s143.269-320 320-320c72.039 0 138.518 23.802 192 63.974zM443.994 261.421c-35.504-23.642-78.14-37.421-123.994-37.421-123.712 0-224 100.288-224 224s100.288 224 224 224c45.854 0 88.49-13.778 123.994-37.42-37.757-52.524-59.994-116.956-59.994-186.58s22.236-134.054 59.994-186.579zM928 448c0-123.712-100.288-224-224-224s-224 100.288-224 224c0 123.712 100.288 224 224 224s224-100.288 224-224z" />
<glyph unicode="&#xe948;" glyph-name="ic-xmark-16" d="M206.059 753.941c18.745 18.745 49.137 18.745 67.882 0l238.059-238.059 238.061 238.059c18.746 18.745 49.133 18.745 67.878 0s18.746-49.137 0-67.882l-238.057-238.059 238.057-238.061c18.746-18.746 18.746-49.133 0-67.878s-49.133-18.746-67.878 0l-238.061 238.057-238.059-238.057c-18.745-18.746-49.137-18.746-67.882 0s-18.745 49.133 0 67.878l238.059 238.061-238.059 238.059c-18.745 18.745-18.745 49.137 0 67.882z" />
<glyph unicode="&#xe949;" glyph-name="ic-arrow-right-16" d="M510.059 753.941c18.745 18.745 49.137 18.745 67.882 0l271.998-272c18.746-18.745 18.746-49.137 0-67.882l-271.998-271.998c-18.745-18.746-49.137-18.746-67.882 0s-18.745 49.133 0 67.878l190.056 190.061h-492.115c-26.509 0-48 21.491-48 48s21.491 48 48 48h492.115l-190.056 190.059c-18.745 18.745-18.745 49.137 0 67.882z" />
<glyph unicode="&#xe94a;" glyph-name="ic-flash-16" d="M294.448 545.338l194.455 233.347c60.813 72.975 91.219 109.462 113.47 99.26s14.442-57.053-1.175-150.753l-17.22-103.32c-3.778-22.667-5.667-34.001 0.040-42.461s16.924-10.952 39.356-15.937l35.614-7.914c91.725-20.384 137.594-30.577 149.197-64.595s-18.477-70.113-78.63-142.3v-0.001l-194.458-233.344c-60.813-72.979-91.219-109.466-113.47-99.264-22.25 10.208-14.442 57.056 1.175 150.758l17.22 103.315c3.778 22.669 5.667 34.003-0.040 42.464-5.707 8.458-16.924 10.95-39.356 15.935l-0.001 0.001-35.612 7.914c-91.729 20.384-137.594 30.577-149.197 64.595s18.476 70.113 78.632 142.301z" />
<glyph unicode="&#xe94b;" glyph-name="ic-information-circle-16" d="M960 448c0-247.424-200.576-448-448-448s-448 200.576-448 448c0 247.423 200.577 448 448 448s448-200.577 448-448zM576 640c0 35.346-28.654 64-64 64s-64-28.654-64-64c0-35.346 28.654-64 64-64s64 28.654 64 64zM512 512c-28.277 0-51.2-22.923-51.2-51.2v-233.6c0-28.275 22.923-51.2 51.2-51.2s51.2 22.925 51.2 51.2v233.6c0 28.277-22.923 51.2-51.2 51.2z" />
<glyph unicode="&#xe94c;" glyph-name="ic-exclamationmark-circle-16" d="M960 448c0-247.424-200.576-448-448-448s-448 200.576-448 448c0 247.423 200.577 448 448 448s448-200.577 448-448zM576 256c0 35.347-28.654 64-64 64s-64-28.653-64-64c0-35.347 28.654-64 64-64s64 28.653 64 64zM512 704c-34.817 0-62.543-29.147-60.804-63.92l10.407-208.14c1.343-26.855 23.508-47.94 50.397-47.94s49.054 21.085 50.397 47.94l10.407 208.14c1.739 34.774-25.987 63.92-60.804 63.92z" />
<glyph unicode="&#xe94d;" glyph-name="ic-copy-outline-16" d="M703.987 256.013c81.811 0.147 125.677 1.722 159.917 19.168 33.114 16.877 60.038 43.802 76.915 76.917 19.181 37.648 19.181 86.933 19.181 185.502v76.8c0 98.569 0 147.854-19.181 185.502-16.877 33.117-43.802 60.042-76.915 76.915-37.651 19.183-86.938 19.183-185.504 19.183h-76.8c-98.569 0-147.854 0-185.502-19.183-33.117-16.874-60.042-43.798-76.915-76.915-17.446-34.24-19.025-78.105-19.169-159.916-81.811-0.143-125.676-1.722-159.916-19.169-33.117-16.874-60.042-43.798-76.915-76.915-19.183-37.648-19.183-86.933-19.183-185.502v-76.8c0-98.566 0-147.853 19.183-185.504 16.874-33.114 43.798-60.038 76.915-76.915 37.648-19.181 86.933-19.181 185.502-19.181h76.8c98.569 0 147.854 0 185.502 19.181 33.116 16.877 60.040 43.802 76.917 76.915 17.446 34.24 19.021 78.106 19.168 159.917zM416 640v32c0 44.804 0 67.206 8.719 84.319 7.67 15.053 19.908 27.292 34.961 34.961 17.113 8.719 39.515 8.719 84.319 8.719h192c44.806 0 67.206 0 84.32-8.719 15.053-7.67 27.29-19.908 34.963-34.961 8.717-17.113 8.717-39.515 8.717-84.319v-192c0-44.804 0-67.206-8.717-84.319-7.674-15.053-19.91-27.292-34.963-34.961-17.114-8.719-39.514-8.719-84.32-8.719h-32v6.4c0 98.569 0 147.854-19.181 185.502-16.877 33.117-43.802 60.042-76.917 76.915-37.648 19.183-86.933 19.183-185.502 19.183h-6.4zM160 416c0 44.804 0 67.206 8.719 84.319 7.67 15.053 19.908 27.292 34.961 34.961 17.113 8.719 39.515 8.719 84.319 8.719h192c44.804 0 67.206 0 84.319-8.719 15.053-7.67 27.292-19.908 34.961-34.961 8.719-17.113 8.719-39.515 8.719-84.319v-192c0-44.806 0-67.206-8.719-84.32-7.67-15.053-19.908-27.29-34.961-34.963-17.113-8.717-39.515-8.717-84.319-8.717h-192c-44.804 0-67.206 0-84.319 8.717-15.053 7.674-27.292 19.91-34.961 34.963-8.719 17.114-8.719 39.514-8.719 84.32v192z" />
<glyph unicode="&#xe94e;" glyph-name="ic-verification-16" d="M477.265 919.874c-16.593-6.439-31.685-20.133-61.871-47.519-14.22-12.902-21.33-19.352-29.279-24.159-10.703-6.472-22.568-10.79-34.927-12.712-9.18-1.427-18.772-1.056-37.958-0.314-40.727 1.577-61.091 2.365-77.94-3.368-22.689-7.72-41.671-23.647-53.213-44.651-8.572-15.598-11.331-35.789-16.851-76.172-2.6-19.023-3.9-28.535-6.9-37.327-4.038-11.838-10.351-22.772-18.584-32.189-6.115-6.994-13.702-12.876-28.876-24.639-32.212-24.972-48.319-37.457-57.541-52.68-12.419-20.498-16.722-44.9-12.062-68.409 3.46-17.459 14.325-34.7 36.054-69.183 10.236-16.244 15.354-24.366 18.708-33.029 4.515-11.665 6.708-24.099 6.454-36.604-0.189-9.288-2.22-18.671-6.283-37.438-8.625-39.834-12.937-59.75-10.218-77.338 3.662-23.686 16.051-45.146 34.732-60.16 13.873-11.149 33.278-17.376 72.088-29.824 18.283-5.862 27.424-8.794 35.562-13.274 10.957-6.035 20.628-14.15 28.472-23.891 5.826-7.238 10.301-15.731 19.25-32.717 18.998-36.058 28.499-54.086 41.888-65.818 18.029-15.789 41.314-24.262 65.275-23.757 17.794 0.378 36.66 8.083 74.392 23.494 17.775 7.258 26.662 10.886 35.776 12.685 12.271 2.426 24.897 2.426 37.169 0 9.114-1.798 18.001-5.427 35.776-12.685 37.732-15.411 56.598-23.117 74.391-23.494 23.962-0.506 47.245 7.968 65.274 23.757 13.395 11.731 22.893 29.76 41.888 65.818 8.954 16.986 13.427 25.478 19.251 32.717 7.846 9.741 17.517 17.856 28.474 23.891 8.141 4.48 17.28 7.411 35.565 13.274 38.81 12.448 58.214 18.675 72.083 29.824 18.682 15.014 31.072 36.474 34.733 60.16 2.72 17.587-1.594 37.504-10.214 77.338-4.064 18.766-6.093 28.15-6.285 37.438-0.25 12.506 1.939 24.94 6.458 36.604 3.354 8.663 8.467 16.785 18.707 33.029 21.728 34.483 32.589 51.724 36.051 69.183 4.659 23.509 0.358 47.911-12.064 68.409-9.222 15.222-25.325 27.708-57.536 52.68-15.174 11.763-22.765 17.645-28.877 24.639-8.237 9.416-14.547 20.351-18.586 32.189-3.002 8.792-4.301 18.304-6.899 37.327-5.523 40.382-8.282 60.573-16.851 76.172-11.546 21.004-30.528 36.932-53.216 44.651-16.845 5.732-37.21 4.945-77.939 3.368-19.187-0.742-28.781-1.114-37.958 0.314-12.358 1.922-24.224 6.24-34.927 12.712-7.949 4.807-15.059 11.258-29.279 24.159-30.186 27.387-45.279 41.080-61.871 47.519-22.343 8.671-47.121 8.671-69.464 0z" />
<glyph unicode="&#xe94f;" glyph-name="ic-sort-16" d="M169.361 595.528c15.725-21.342 45.774-25.894 67.116-10.169l275.526 203.020 275.53-203.020c21.338-15.725 51.386-11.173 67.11 10.169 15.731 21.341 11.174 51.391-10.17 67.116l-303.997 224c-16.932 12.477-40.015 12.477-56.947 0l-304-224c-21.342-15.725-25.894-45.775-10.169-67.116zM169.361 300.467c15.725 21.344 45.774 25.896 67.116 10.17l275.526-203.021 275.53 203.021c21.338 15.727 51.386 11.174 67.11-10.17 15.731-21.338 11.174-51.392-10.17-67.117l-303.997-224c-16.932-12.474-40.015-12.474-56.947 0l-304 224c-21.342 15.725-25.894 45.779-10.169 67.117z" />
<glyph unicode="&#xe950;" glyph-name="ic-globe-16" d="M960 448c0 247.423-200.576 448-448 448s-448-200.577-448-448c0-247.424 200.577-448 448-448s448 200.576 448 448zM622.967 400c-7.448-171.699-54.292-304-110.967-304s-103.519 132.301-110.968 304h221.935zM719.053 400h141.702c-15.981-117.197-89.645-216.045-191.45-266.982 4.986 12.134 9.414 24.544 13.37 36.973 20.288 63.75 32.941 143.808 36.378 230.010zM860.755 496h-141.702c-3.437 86.204-16.090 166.256-36.378 230.009-3.955 12.426-8.384 24.84-13.37 36.973 101.805-50.941 175.469-149.784 191.45-266.982zM622.967 496h-221.935c7.448 171.672 54.278 303.962 110.943 304 56.675 0 103.544-132.303 110.992-304zM304.95 496h-141.705c15.98 117.198 89.646 216.042 191.451 266.982-4.987-12.134-9.42-24.547-13.373-36.973-20.285-63.753-32.938-143.805-36.372-230.009zM163.245 400h141.705c3.435-86.202 16.088-166.259 36.372-230.010 3.954-12.429 8.387-24.838 13.373-36.973-101.805 50.938-175.471 149.786-191.451 266.982z" />
<glyph unicode="&#xe951;" glyph-name="ic-coins-16" d="M296.684 753.931c52.64 27.573 128.687 46.069 215.316 46.069s162.675-18.496 215.315-46.069c54.912-28.764 72.685-60.136 72.685-81.931s-17.773-53.167-72.685-81.931c-52.64-27.573-128.686-46.069-215.315-46.069s-162.676 18.496-215.316 46.069c-54.913 28.764-72.684 60.136-72.684 81.931s17.771 53.167 72.684 81.931zM800 521.492v-73.492c0-21.795-17.773-53.167-72.685-81.931-52.64-27.573-128.686-46.069-215.315-46.069s-162.676 18.496-215.316 46.069c-54.913 28.764-72.684 60.136-72.684 81.931v73.492c9.091-5.933 18.519-11.424 28.14-16.463 68.968-36.126 160.922-57.029 259.86-57.029s190.893 20.903 259.859 57.029c9.619 5.039 19.053 10.531 28.141 16.463zM896 448v224c0 75.407-57.446 132.035-124.141 166.971-68.966 36.126-160.92 57.029-259.859 57.029s-190.892-20.903-259.86-57.029c-66.694-34.936-124.14-91.564-124.14-166.971v-448c0-75.405 57.445-132.038 124.14-166.97 68.968-36.128 160.922-57.030 259.86-57.030s190.893 20.902 259.859 57.030c66.694 34.931 124.141 91.565 124.141 166.97v224zM800 297.491v-73.491c0-21.792-17.773-53.165-72.685-81.933-52.64-27.571-128.686-46.067-215.315-46.067s-162.676 18.496-215.316 46.067c-54.913 28.768-72.684 60.141-72.684 81.933v73.491c9.091-5.933 18.519-11.424 28.14-16.461 68.968-36.128 160.922-57.030 259.86-57.030s190.893 20.902 259.859 57.030c9.619 5.037 19.053 10.528 28.141 16.461z" />
<glyph unicode="&#xe952;" glyph-name="ic-auction-hammer-16" d="M529.165 837.885c9.64 3.133 20.025 3.133 29.665 0 2.533-0.823 7.231-2.963 17.204-11.43 10.403-8.831 23.064-21.44 42.634-41.009l166.778-166.777c19.565-19.569 32.179-32.23 41.005-42.633 8.467-9.974 10.611-14.671 11.43-17.204 3.136-9.641 3.136-20.026 0-29.666-0.819-2.533-2.963-7.231-11.43-17.204-8.826-10.403-21.44-23.064-41.005-42.633l-38.778-38.777c-19.571-19.569-32.23-32.178-42.63-41.009-9.978-8.468-14.675-10.607-17.21-11.43-9.638-3.132-20.026-3.132-29.664 0-2.534 0.823-7.232 2.963-17.204 11.43-10.403 8.831-23.064 21.44-42.634 41.009l-166.776 166.777c-19.569 19.569-32.178 32.23-41.009 42.633-8.467 9.974-10.607 14.671-11.43 17.204-3.133 9.64-3.133 20.025 0 29.666 0.823 2.533 2.963 7.23 11.43 17.204 8.831 10.402 21.44 23.064 41.009 42.633l38.776 38.777c19.569 19.569 32.231 32.178 42.634 41.009 9.974 8.467 14.671 10.607 17.204 11.43zM588.497 929.186c-28.922 9.397-60.076 9.397-88.997 0-19.386-6.299-35.153-17.225-49.668-29.547-13.752-11.675-29.187-27.11-47.078-45.003l-41.395-41.394c-17.892-17.891-33.327-33.325-45.002-47.078-12.322-14.515-23.248-30.282-29.547-49.668-9.397-28.922-9.397-60.076 0-88.997 6.299-19.386 17.225-35.153 29.547-49.668 11.675-13.752 27.11-29.186 45.002-47.077v0l50.756-50.756-334.059-334.060c-18.745-18.746-18.745-49.139 0-67.878 18.745-18.746 49.137-18.746 67.882 0l334.059 334.056 50.756-50.756c17.891-17.892 33.325-33.328 47.077-45.002 14.515-12.32 30.282-23.251 49.668-29.549 28.923-9.395 60.078-9.395 89 0 19.386 6.298 35.149 17.229 49.664 29.549 13.754 11.674 29.19 27.11 47.078 45.003l1.312 1.308 40.090 40.090c17.888 17.889 33.325 33.322 44.998 47.073 12.32 14.515 23.245 30.282 29.542 49.668 9.402 28.922 9.402 60.076 0 88.997-6.298 19.386-17.222 35.153-29.542 49.668-11.68 13.752-27.11 29.185-45.005 47.076v0.003l-1.312 1.308-168.083 168.086c-17.888 17.892-33.325 33.328-47.077 45.002-14.515 12.322-30.282 23.248-49.668 29.547zM495.999 96c-26.51 0-48-21.491-48-48s21.49-48 48-48h416.001c26.509 0 48 21.491 48 48s-21.491 48-48 48h-416.001z" />
<glyph unicode="&#xe953;" glyph-name="ic-sale-badge-16" d="M578.655 896l-5.617 0.001c-42.775 0.013-72.381 0.021-100.725-6.953-25.045-6.163-48.932-16.323-70.744-30.088-24.684-15.579-45.214-36.911-74.875-67.731h-0.001l-114.609-119.019c-36.685-38.095-66.224-68.771-88.146-95.568-22.564-27.583-39.746-54.182-49.305-84.979-15.236-49.089-14.74-101.715 1.42-150.508 10.138-30.614 27.818-56.88 50.899-84.035 22.424-26.381 52.537-56.493 89.933-93.888l1.443-1.44 8.906-8.909c37.396-37.395 67.508-67.507 93.888-89.933 27.153-23.078 53.422-40.762 84.034-50.899 48.793-16.16 101.418-16.653 150.508-1.421 30.797 9.562 57.396 26.746 84.977 49.306 26.803 21.926 57.472 51.462 95.571 88.147l1.472 1.414 117.549 113.197c30.816 29.658 52.147 50.189 67.731 74.874 13.76 21.811 23.923 45.699 30.086 70.744 6.976 28.344 6.963 57.95 6.95 100.725v84.976c0 43.095 0 78.339-2.336 106.982-2.426 29.649-7.59 56.426-20.333 81.434-19.942 39.138-51.763 70.958-90.899 90.899-25.011 12.742-51.789 17.909-81.434 20.332-28.646 2.34-63.891 2.34-106.989 2.339h-79.354zM495.252 795.829c15.635 3.847 32.874 4.171 83.404 4.171h77.345c45.6 0 76.909-0.037 101.178-2.020 23.712-1.937 36.454-5.489 45.67-10.187 21.075-10.737 38.208-27.871 48.947-48.945 4.698-9.219 8.25-21.956 10.182-45.668 1.984-24.272 2.022-55.583 2.022-101.179v-77.345c0-50.529-0.32-67.768-4.173-83.404-3.693-15.027-9.792-29.359-18.048-42.446-8.595-13.617-20.787-25.808-57.184-60.857l-113.504-109.299c-39.908-38.432-67.802-65.242-91.234-84.41-22.99-18.803-38.525-27.539-52.652-31.923-29.964-9.299-62.085-8.998-91.868 0.87-14.042 4.646-29.409 13.67-52.040 32.909-23.066 19.61-50.45 46.938-89.625 86.112l-7.462 7.462c-39.175 39.174-66.507 66.56-86.113 89.626-19.238 22.633-28.262 38-32.912 52.042-9.864 29.782-10.167 61.904-0.867 91.868 4.385 14.127 13.117 29.661 31.924 52.652 19.168 23.431 45.978 51.325 84.408 91.233l109.298 113.502c35.050 36.397 47.24 48.591 60.857 57.184 13.087 8.259 27.42 14.355 42.447 18.053zM696 560c39.763 0 72 32.236 72 72s-32.237 72-72 72c-39.77 0-72.003-32.236-72.003-72s32.234-72 72.003-72z" />
<glyph unicode="&#xe954;" glyph-name="ic-double-checkmark-16" d="M993.939 622.059c18.746 18.745 18.746 49.137 0 67.882s-49.133 18.745-67.878 0l-366.061-366.059-174.059 174.059c-18.745 18.745-49.137 18.745-67.882 0s-18.745-49.137 0-67.882l208-207.998c18.745-18.746 49.137-18.746 67.882 0l399.998 399.998zM705.939 606.059c18.746 18.745 18.746 49.137 0 67.882s-49.133 18.745-67.88 0l-112-112c-18.745-18.745-18.745-49.137 0-67.882s49.137-18.745 67.882 0l111.998 112zM113.941 497.941c-18.745 18.745-49.137 18.745-67.882 0s-18.745-49.137 0-67.882l208-207.998c18.745-18.746 49.137-18.746 67.882 0s18.745 49.133 0 67.878l-208 208.002z" />
<glyph unicode="&#xe955;" glyph-name="ic-xmark-circle-outline-16" d="M401.941 625.941c-18.745 18.745-49.137 18.745-67.882 0s-18.745-49.137 0-67.882l110.059-110.059-110.059-110.059c-18.745-18.748-18.745-49.135 0-67.88s49.137-18.746 67.882 0l110.059 110.057 110.059-110.057c18.748-18.746 49.135-18.746 67.88 0s18.746 49.133 0 67.88l-110.057 110.059 110.057 110.059c18.746 18.745 18.746 49.137 0 67.882s-49.133 18.745-67.88 0l-110.059-110.059-110.059 110.059zM960 448c0 247.423-200.576 448-448 448s-448-200.577-448-448c0-247.424 200.577-448 448-448s448 200.576 448 448zM864 448c0-194.406-157.594-352-352-352-194.404 0-352 157.594-352 352 0 194.404 157.596 352 352 352 194.406 0 352-157.596 352-352z" />
<glyph unicode="&#xe956;" glyph-name="ic-block-16" d="M960 448c0 247.423-200.576 448-448 448s-448-200.577-448-448c0-247.424 200.577-448 448-448s448 200.576 448 448zM724.646 167.469c-59.072-44.851-132.752-71.469-212.646-71.469-194.404 0-352 157.594-352 352 0 79.894 26.618 153.572 71.469 212.649l493.178-493.18zM792.531 235.354l-493.18 493.178c59.076 44.851 132.755 71.469 212.649 71.469 194.406 0 352-157.596 352-352 0-79.894-26.618-153.574-71.469-212.646z" />
<glyph unicode="&#xe957;" glyph-name="ic-entrance-16" d="M617.6 864h1.982c38.639 0.001 70.53 0.001 96.508-2.122 26.976-2.204 51.782-6.935 75.078-18.805 36.128-18.408 65.498-47.78 83.904-83.907 11.872-23.296 16.602-48.098 18.81-75.078 2.118-25.978 2.118-57.866 2.118-96.504v-279.167c0-38.637 0-70.528-2.118-96.506-2.208-26.976-6.938-51.782-18.81-75.078-18.406-36.128-47.776-65.498-83.904-83.904-23.296-11.872-48.102-16.602-75.078-18.81-25.978-2.118-57.869-2.118-96.504-2.118h-59.586c-26.509 0-48 21.491-48 48s21.491 48 48 48h57.6c41.114 0 69.069 0.038 90.669 1.805 21.043 1.715 31.808 4.832 39.315 8.659 18.061 9.203 32.749 23.891 41.952 41.952 3.827 7.507 6.944 18.272 8.659 39.315 1.766 21.6 1.805 49.555 1.805 90.669v275.2c0 41.116-0.038 69.066-1.805 90.67-1.715 21.044-4.832 31.806-8.659 39.313-9.203 18.063-23.891 32.749-41.952 41.953-7.507 3.825-18.272 6.941-39.315 8.661-21.6 1.765-49.555 1.802-90.669 1.802h-57.6c-26.509 0-48 21.491-48 48s21.491 48 48 48h57.6zM433.941 673.941c-18.745 18.745-49.137 18.745-67.882 0s-18.745-49.137 0-67.882l110.059-110.059h-364.118c-26.509 0-48-21.491-48-48s21.491-48 48-48h364.118l-110.059-110.061c-18.745-18.746-18.745-49.133 0-67.878s49.137-18.746 67.882 0l192 191.998c18.744 18.745 18.744 49.137 0 67.882l-192 192z" />
<glyph unicode="&#xe958;" glyph-name="ic-exit-16" d="M406.4 864h-1.982c-38.639 0.001-70.528 0.001-96.506-2.122-26.98-2.204-51.782-6.935-75.078-18.805-36.127-18.408-65.5-47.78-83.907-83.907-11.87-23.296-16.601-48.098-18.805-75.078-2.123-25.978-2.122-57.866-2.122-96.504v-279.167c-0.001-38.637-0.001-70.528 2.122-96.506 2.204-26.976 6.935-51.782 18.805-75.078 18.408-36.128 47.78-65.498 83.907-83.904 23.296-11.872 48.098-16.602 75.078-18.81 25.976-2.118 57.865-2.118 96.502-2.118h59.586c26.509 0 48 21.491 48 48s-21.491 48-48 48h-57.6c-41.116 0-69.066 0.038-90.67 1.805-21.044 1.715-31.806 4.832-39.313 8.659-18.063 9.203-32.749 23.891-41.953 41.952-3.825 7.507-6.941 18.272-8.661 39.315-1.765 21.6-1.802 49.555-1.802 90.669v275.2c0 41.116 0.037 69.066 1.802 90.67 1.72 21.044 4.836 31.806 8.661 39.313 9.204 18.063 23.89 32.749 41.953 41.953 7.507 3.825 18.269 6.941 39.313 8.661 21.604 1.765 49.555 1.802 90.67 1.802h57.6c26.509 0 48 21.491 48 48s-21.491 48-48 48h-57.6zM753.939 673.941c-18.746 18.745-49.133 18.745-67.878 0s-18.746-49.137 0-67.882l110.054-110.059h-364.115c-26.509 0-48-21.491-48-48s21.491-48 48-48h364.115l-110.054-110.061c-18.746-18.746-18.746-49.133 0-67.878s49.133-18.746 67.878 0l192 191.998c18.746 18.745 18.746 49.137 0 67.882l-192 192z" />
<glyph unicode="&#xe959;" glyph-name="ic-search-16" d="M748.384 505.807c0 162.478-131.712 294.193-294.191 294.193s-294.193-131.715-294.193-294.193c0-162.479 131.715-294.191 294.193-294.191s294.191 131.712 294.191 294.191zM694.080 198.042c-66.175-51.654-149.437-82.426-239.887-82.426-215.498 0-390.193 174.694-390.193 390.191s174.696 390.193 390.193 390.193c215.496 0 390.191-174.696 390.191-390.193 0-90.45-30.771-173.711-82.426-239.887l158.176-158.17c18.746-18.746 18.746-49.139 0-67.885s-49.139-18.746-67.885 0l-158.17 158.176z" />
<glyph unicode="&#xe95a;" glyph-name="ic-ton-16" d="M209.631 864h604.756c107.885 0 175.686-116.355 122.502-210.218l-341.366-602.39c-36.774-64.896-130.272-64.896-167.044 0l-341.348 602.393c-53.187 93.862 14.616 210.215 122.5 210.215zM464.025 182.4v585.6h-213.090c-37.266 0-55.899 0-66.785-7.834-9.498-6.835-15.679-17.355-17.025-28.98-1.544-13.323 7.528-29.599 25.671-62.15l271.229-486.636zM560.031 768v-585.6l271.226 486.636c18.144 32.552 27.219 48.828 25.677 62.15-1.35 11.625-7.526 22.145-17.030 28.98-10.886 7.834-29.517 7.834-66.784 7.834h-213.089z" />
<glyph unicode="&#xe95b;" glyph-name="ic-loader-16" d="M512 800c-194.404 0-352-157.596-352-352 0-194.406 157.596-352 352-352 194.406 0 352 157.594 352 352 0 26.509 21.491 48 48 48s48-21.491 48-48c0-247.424-200.576-448-448-448s-448 200.576-448 448c0 247.423 200.577 448 448 448 26.509 0 48-21.491 48-48s-21.491-48-48-48z" />
<glyph unicode="&#xe95c;" glyph-name="ic-plus-16" d="M512 832c26.509 0 48-21.491 48-48v-288h288c26.509 0 48-21.491 48-48s-21.491-48-48-48h-288v-288c0-26.509-21.491-48-48-48s-48 21.491-48 48v288h-288c-26.509 0-48 21.491-48 48s21.491 48 48 48h288v288c0 26.509 21.491 48 48 48z" />
<glyph unicode="&#xe95d;" glyph-name="ic-more-vertical-16" d="M512 640c-44.183 0-80 35.817-80 80s35.817 80 80 80c44.183 0 80-35.817 80-80s-35.817-80-80-80zM512 368c-44.183 0-80 35.817-80 80s35.817 80 80 80c44.183 0 80-35.817 80-80s-35.817-80-80-80zM432 176c0-44.186 35.817-80 80-80s80 35.814 80 80c0 44.186-35.817 80-80 80s-80-35.814-80-80z" />
<glyph unicode="&#xe95e;" glyph-name="ic-more-horizontal-16" d="M320 448c0-44.183-35.817-80-80-80s-80 35.817-80 80c0 44.183 35.817 80 80 80s80-35.817 80-80zM592 448c0-44.183-35.817-80-80-80s-80 35.817-80 80c0 44.183 35.817 80 80 80s80-35.817 80-80zM784 368c44.186 0 80 35.817 80 80s-35.814 80-80 80c-44.186 0-80-35.817-80-80s35.814-80 80-80z" />
<glyph unicode="&#xe95f;" glyph-name="ic-trash-bin-16" d="M512 832c56.424 0 103.102-41.724 110.866-96h-221.732c7.764 54.276 54.442 96 110.866 96zM512 928c109.492 0 199.226-84.601 207.392-192h224.608c26.509 0 48-21.491 48-48s-21.491-48-48-48h-48v-370.016c0-43.091 0-78.336-2.342-106.982-2.419-29.645-7.584-56.422-20.326-81.434-19.942-39.136-51.763-70.957-90.899-90.899-25.011-12.742-51.789-17.907-81.434-20.326-28.646-2.342-63.889-2.342-106.984-2.342h-164.028c-43.094 0-78.339 0-106.982 2.342-29.649 2.419-56.426 7.584-81.434 20.326-39.138 19.942-70.957 51.763-90.899 90.899-12.742 25.011-17.909 51.789-20.332 81.434-2.34 28.646-2.34 63.891-2.339 106.989v370.010h-48c-26.51 0-48 21.491-48 48s21.49 48 48 48h224.606c8.17 107.399 97.902 192 207.394 192zM224 640v-368c0-45.594 0.037-76.909 2.020-101.178 1.937-23.712 5.49-36.448 10.187-45.67 10.738-21.075 27.871-38.208 48.946-48.947 9.219-4.698 21.956-8.25 45.668-10.182 24.272-1.984 55.583-2.022 101.179-2.022h160c45.596 0 76.909 0.038 101.178 2.022 23.712 1.933 36.448 5.485 45.67 10.182 21.075 10.739 38.208 27.872 48.947 48.947 4.698 9.222 8.25 21.958 10.182 45.67 1.984 24.269 2.022 55.584 2.022 101.178v368h-576zM448 496v-288c0-26.509-21.491-48-48-48s-48 21.491-48 48v288c0 26.509 21.491 48 48 48s48-21.491 48-48zM672 496v-288c0-26.509-21.491-48-48-48s-48 21.491-48 48v288c0 26.509 21.491 48 48 48s48-21.491 48-48z" />
<glyph unicode="&#xe960;" glyph-name="ic-chevron-right-16" d="M401.485 757.053c20.463 16.852 50.714 13.924 67.567-6.539l223.997-272c14.598-17.724 14.598-43.304 0-61.028l-223.997-272.002c-16.852-20.461-47.103-23.392-67.567-6.534-20.463 16.851-23.391 47.098-6.539 67.565l198.871 241.485-198.871 241.486c-16.852 20.463-13.924 50.714 6.539 67.567z" />
<glyph unicode="&#xe961;" glyph-name="ic-done-16" d="M881.939 689.941c18.746-18.745 18.746-49.137 0-67.882l-463.998-463.998c-18.745-18.746-49.137-18.746-67.882 0l-208 207.998c-18.745 18.745-18.745 49.137 0 67.882s49.137 18.745 67.882 0l174.059-174.056 430.061 430.056c18.746 18.745 49.133 18.745 67.878 0z" />
<glyph unicode="&#xe962;" glyph-name="ic-chevron-down-16" d="M153.601 572.799c15.906 21.208 45.992 25.505 67.2 9.6l291.2-218.4 291.199 218.4c21.21 15.905 51.296 11.608 67.2-9.6s11.61-51.295-9.6-67.2l-319.999-239.999c-17.066-12.8-40.533-12.8-57.6 0l-320 239.999c-21.208 15.905-25.505 45.992-9.6 67.2z" />
<glyph unicode="&#xe963;" glyph-name="ic-chevron-down-12" d="M181.859 554.537c16.423 24.451 49.558 30.961 74.010 14.537l256.131-172.029 256.128 172.029c24.451 16.423 57.587 9.915 74.010-14.537 16.426-24.451 9.914-57.587-14.537-74.010l-285.864-192.001c-17.984-12.079-41.489-12.079-59.473 0l-285.868 192.001c-24.451 16.423-30.961 49.558-14.537 74.010z" />
<glyph unicode="&#xe964;" glyph-name="ic-arrow-down-12" d="M189.412 445.412c-24.993 24.993-24.993 65.516 0 90.51l277.333 277.333c24.994 24.993 65.516 24.993 90.51 0l277.333-277.333c24.992-24.993 24.992-65.516 0-90.51-24.993-24.993-65.516-24.993-90.51 0l-168.079 168.079v-528.157c0-35.345-28.653-64-64-64s-64 28.655-64 64v528.157l-168.079-168.079c-24.993-24.993-65.516-24.993-90.51 0z" />
<glyph unicode="&#xe965;" glyph-name="ic-arrow-up-12" d="M189.412 450.588c-24.993-24.993-24.993-65.516 0-90.51l277.333-277.331c24.993-24.994 65.516-24.994 90.51 0l277.333 277.331c24.992 24.993 24.992 65.516 0 90.51-24.993 24.993-65.516 24.993-90.51 0l-168.079-168.079v528.157c0 35.346-28.654 64-64 64s-64-28.654-64-64v-528.157l-168.079 168.079c-24.993 24.993-65.516 24.993-90.51 0z" />
</font>
</defs>
</svg>
