<svg width="12" height="12" viewBox="0 0 24 20" fill="none" xmlns="http://www.w3.org/2000/svg">
<path d="M11.0427 11.1853L2.40449 19.6031C2.11732 19.8802 1.74196 20.0219 1.36003 19.9973C0.978095 19.9726 0.620472 19.7837 0.364918 19.4716C0.112117 19.1567 -0.0170976 18.7452 0.00536896 18.3265C0.0278356 17.9078 0.200167 17.5157 0.484893 17.2356L7.91135 10.0016L0.484893 2.76755C0.198518 2.48849 0.0249949 2.09613 0.00249526 1.67681C-0.0200044 1.25748 0.110363 0.845533 0.364918 0.531584C0.619473 0.217634 0.977363 0.0274017 1.35986 0.00273553C1.74235 -0.0219307 2.11812 0.12099 2.40449 0.400056L11.0427 8.81782C11.1942 8.96707 11.3153 9.1496 11.3983 9.35354C11.4812 9.55748 11.5241 9.77828 11.5241 10.0016C11.5241 10.2249 11.4812 10.4457 11.3983 10.6496C11.3153 10.8535 11.1942 11.0361 11.0427 11.1853ZM22.5603 16.841H11.0427C10.6609 16.841 10.2947 17.0073 10.0247 17.3033C9.75468 17.5993 9.603 18.0007 9.603 18.4193C9.603 18.8379 9.75468 19.2394 10.0247 19.5354C10.2947 19.8314 10.6609 19.9977 11.0427 19.9977H22.5603C22.9421 19.9977 23.3083 19.8314 23.5783 19.5354C23.8483 19.2394 24 18.8379 24 18.4193C24 18.0007 23.8483 17.5993 23.5783 17.3033C23.3083 17.0073 22.9421 16.841 22.5603 16.841Z" fill="white"/>
</svg>
