<svg width="169" height="40" viewBox="0 0 169 40" fill="none" xmlns="http://www.w3.org/2000/svg">
<path d="M7 20L16 6L25 20L16 34L7 20Z" fill="#89B8FF"/>
<path d="M16 34V20H9L16 34Z" fill="#2E5FDC"/>
<path d="M16 34V20H23L16 34Z" fill="#1D2DC6"/>
<path d="M16 20V6L9 20H16Z" fill="#4576F3"/>
<path d="M16 20V6L23 19.9998L16 20Z" fill="#3346F6"/>
<path d="M16 34L4 20H10L16 34Z" fill="#4486EB"/>
<path d="M4 20L16 6L10 20H4Z" fill="#89B8FF"/>
<path d="M28 20L16 34L22 20H28Z" fill="#0F1D9D"/>
<path d="M16 6L28 20H22L16 6Z" fill="#213DD1"/>
<path d="M42.8379 27.7814V14.2461H37.5V11.1005H52.0362V14.2461H46.6983V27.7814H42.8379ZM58.6483 27.972C57.2822 27.972 56.0669 27.6861 55.0024 27.1141C53.9539 26.5422 53.1198 25.7638 52.5003 24.7788C51.8966 23.778 51.5947 22.6421 51.5947 21.3712C51.5947 20.0844 51.8966 18.9485 52.5003 17.9635C53.1198 16.9627 53.9539 16.1843 55.0024 15.6282C56.0669 15.0563 57.2822 14.7703 58.6483 14.7703C59.9988 14.7703 61.2061 15.0563 62.2705 15.6282C63.3349 16.1843 64.169 16.9547 64.7726 17.9397C65.3763 18.9247 65.6781 20.0685 65.6781 21.3712C65.6781 22.6421 65.3763 23.778 64.7726 24.7788C64.169 25.7638 63.3349 26.5422 62.2705 27.1141C61.2061 27.6861 59.9988 27.972 58.6483 27.972ZM58.6483 24.9218C59.2679 24.9218 59.824 24.7788 60.3164 24.4929C60.809 24.2069 61.1981 23.8018 61.4841 23.2775C61.77 22.7374 61.913 22.1019 61.913 21.3712C61.913 20.6245 61.77 19.989 61.4841 19.4648C61.1981 18.9405 60.809 18.5354 60.3164 18.2495C59.824 17.9635 59.2679 17.8205 58.6483 17.8205C58.0288 17.8205 57.4728 17.9635 56.9803 18.2495C56.4878 18.5354 56.0907 18.9405 55.7888 19.4648C55.5028 19.989 55.3598 20.6245 55.3598 21.3712C55.3598 22.1019 55.5028 22.7374 55.7888 23.2775C56.0907 23.8018 56.4878 24.2069 56.9803 24.4929C57.4728 24.7788 58.0288 24.9218 58.6483 24.9218ZM75.9553 14.7703C76.972 14.7703 77.8776 14.9768 78.6719 15.3899C79.4821 15.787 80.1176 16.4066 80.5783 17.2486C81.039 18.0747 81.2694 19.1391 81.2694 20.4418V27.7814H77.5519V21.0137C77.5519 19.9811 77.3216 19.2185 76.8608 18.7261C76.4161 18.2336 75.7805 17.9873 74.9545 17.9873C74.3667 17.9873 73.8345 18.1145 73.3579 18.3686C72.8971 18.6069 72.5318 18.9802 72.2617 19.4886C72.0076 19.997 71.8804 20.6483 71.8804 21.4427V27.7814H68.163V14.9609H71.7136V18.5116L71.0464 17.4392C71.5071 16.5814 72.1664 15.9221 73.0243 15.4614C73.8821 15.0006 74.8592 14.7703 75.9553 14.7703ZM87.8855 27.7814L82.4999 14.9609H86.3365L90.8165 25.9941H88.9101L93.557 14.9609H97.1314L91.7221 27.7814H87.8855ZM98.6483 27.7814V14.9609H102.366V27.7814H98.6483ZM100.507 13.1737C99.824 13.1737 99.2679 12.9751 98.8389 12.578C98.41 12.1808 98.1955 11.6883 98.1955 11.1005C98.1955 10.5127 98.41 10.0202 98.8389 9.62309C99.2679 9.22593 99.824 9.02734 100.507 9.02734C101.19 9.02734 101.746 9.21798 102.175 9.59926C102.604 9.96465 102.819 10.4412 102.819 11.029C102.819 11.6486 102.604 12.1649 102.175 12.578C101.762 12.9751 101.206 13.1737 100.507 13.1737ZM112.179 27.972C110.717 27.972 109.43 27.6861 108.318 27.1141C107.222 26.5422 106.372 25.7638 105.768 24.7788C105.165 23.778 104.863 22.6421 104.863 21.3712C104.863 20.0844 105.157 18.9485 105.744 17.9635C106.348 16.9627 107.166 16.1843 108.199 15.6282C109.231 15.0563 110.399 14.7703 111.702 14.7703C112.957 14.7703 114.085 15.0404 115.086 15.5805C116.102 16.1048 116.905 16.8673 117.493 17.8682C118.08 18.8532 118.374 20.0367 118.374 21.4188C118.374 21.5618 118.366 21.7286 118.35 21.9192C118.334 22.094 118.319 22.2608 118.303 22.4197H107.889V20.2512H116.349L114.919 20.8946C114.919 20.2273 114.784 19.6474 114.514 19.155C114.244 18.6625 113.87 18.2813 113.394 18.0112C112.917 17.7252 112.361 17.5822 111.726 17.5822C111.09 17.5822 110.526 17.7252 110.034 18.0112C109.557 18.2813 109.184 18.6704 108.914 19.1788C108.644 19.6713 108.509 20.2591 108.509 20.9422V21.5141C108.509 22.2132 108.66 22.8328 108.961 23.3729C109.279 23.8971 109.716 24.3022 110.272 24.5882C110.844 24.8583 111.511 24.9933 112.274 24.9933C112.957 24.9933 113.553 24.89 114.061 24.6835C114.585 24.477 115.062 24.1672 115.491 23.7541L117.469 25.8988C116.881 26.5661 116.142 27.0823 115.253 27.4478C114.363 27.7972 113.338 27.972 112.179 27.972ZM123.547 27.7814L118.924 14.9609H122.427L126.264 25.9941H124.595L128.599 14.9609H131.744L135.629 25.9941H133.961L137.916 14.9609H141.205L136.558 27.7814H132.96L129.552 18.321H130.648L127.121 27.7814H123.547ZM148.947 27.972C147.485 27.972 146.198 27.6861 145.087 27.1141C143.991 26.5422 143.141 25.7638 142.537 24.7788C141.933 23.778 141.631 22.6421 141.631 21.3712C141.631 20.0844 141.926 18.9485 142.513 17.9635C143.117 16.9627 143.935 16.1843 144.968 15.6282C146.001 15.0563 147.168 14.7703 148.471 14.7703C149.725 14.7703 150.854 15.0404 151.854 15.5805C152.871 16.1048 153.674 16.8673 154.261 17.8682C154.849 18.8532 155.143 20.0367 155.143 21.4188C155.143 21.5618 155.135 21.7286 155.119 21.9192C155.104 22.094 155.087 22.2608 155.071 22.4197H144.658V20.2512H153.117L151.688 20.8946C151.688 20.2273 151.553 19.6474 151.282 19.155C151.012 18.6625 150.639 18.2813 150.162 18.0112C149.686 17.7252 149.129 17.5822 148.494 17.5822C147.859 17.5822 147.295 17.7252 146.802 18.0112C146.326 18.2813 145.953 18.6704 145.682 19.1788C145.412 19.6713 145.277 20.2591 145.277 20.9422V21.5141C145.277 22.2132 145.429 22.8328 145.73 23.3729C146.048 23.8971 146.484 24.3022 147.041 24.5882C147.613 24.8583 148.28 24.9933 149.042 24.9933C149.725 24.9933 150.321 24.89 150.83 24.6835C151.354 24.477 151.831 24.1672 152.259 23.7541L154.237 25.8988C153.65 26.5661 152.911 27.0823 152.021 27.4478C151.131 27.7972 150.106 27.972 148.947 27.972ZM157.618 27.7814V14.9609H161.168V18.5831L160.668 17.5346C161.049 16.629 161.66 15.946 162.503 15.4852C163.345 15.0086 164.37 14.7703 165.577 14.7703V18.2018C165.418 18.186 165.275 18.178 165.148 18.178C165.02 18.1621 164.886 18.1541 164.743 18.1541C163.726 18.1541 162.899 18.4481 162.264 19.0358C161.645 19.6078 161.335 20.5053 161.335 21.7286V27.7814H157.618Z" fill="var(--textPrimary)"/>
</svg>
