<svg width="12" height="12" viewBox="0 0 20 24" fill="none" xmlns="http://www.w3.org/2000/svg">
<path d="M4.7619 6.22222C4.7619 5.8686 4.91241 5.52946 5.18032 5.27941C5.44823 5.02936 5.8116 4.88889 6.19048 4.88889H13.8095C14.1884 4.88889 14.5518 5.02936 14.8197 5.27941C15.0876 5.52946 15.2381 5.8686 15.2381 6.22222C15.2381 6.57584 15.0876 6.91498 14.8197 7.16503C14.5518 7.41508 14.1884 7.55556 13.8095 7.55556H6.19048C5.8116 7.55556 5.44823 7.41508 5.18032 7.16503C4.91241 6.91498 4.7619 6.57584 4.7619 6.22222ZM6.19048 12H13.8095C14.1884 12 14.5518 11.8595 14.8197 11.6095C15.0876 11.3594 15.2381 11.0203 15.2381 10.6667C15.2381 10.313 15.0876 9.97391 14.8197 9.72386C14.5518 9.47381 14.1884 9.33333 13.8095 9.33333H6.19048C5.8116 9.33333 5.44823 9.47381 5.18032 9.72386C4.91241 9.97391 4.7619 10.313 4.7619 10.6667C4.7619 11.0203 4.91241 11.3594 5.18032 11.6095C5.44823 11.8595 5.8116 12 6.19048 12ZM10 16.4444C9.62327 16.4444 9.25501 16.5487 8.94177 16.7441C8.62853 16.9394 8.3844 17.217 8.24023 17.5419C8.09606 17.8667 8.05834 18.2242 8.13184 18.569C8.20533 18.9139 8.38674 19.2307 8.65313 19.4793C8.91952 19.7279 9.25891 19.8972 9.6284 19.9658C9.99789 20.0344 10.3809 19.9992 10.7289 19.8647C11.077 19.7301 11.3745 19.5023 11.5838 19.2099C11.793 18.9175 11.9048 18.5738 11.9048 18.2222C11.9048 17.7507 11.7041 17.2985 11.3469 16.9651C10.9897 16.6317 10.5052 16.4444 10 16.4444ZM20 2.22222V21.7778C19.9969 22.3662 19.745 22.9298 19.2992 23.3459C18.8533 23.762 18.2496 23.9971 17.619 24H2.38095C1.75045 23.9971 1.14666 23.762 0.700822 23.3459C0.254983 22.9298 0.00312911 22.3662 0 21.7778V2.22222C0.00312911 1.63375 0.254983 1.07022 0.700822 0.654101C1.14666 0.237985 1.75045 0.0029205 2.38095 0H17.619C18.2496 0.0029205 18.8533 0.237985 19.2992 0.654101C19.745 1.07022 19.9969 1.63375 20 2.22222ZM17.1429 2.66667H2.85714V21.3333H17.1429V2.66667Z" fill="white"/>
</svg>
