<svg width="838" height="167" view-box="0 0 838 167" fill="none" xmlns="http://www.w3.org/2000/svg">
  <g clip-path="url(#clip0_2908_17481)">
    <path d="M838 -39H0V206.454H838V-39Z" fill='transparent' />
    <path
      d="M344.07 142.32C340.31 142.32 336.59 141.92 332.91 141.12C329.23 140.32 325.79 139.24 322.59 137.88C319.39 136.44 316.71 134.76 314.55 132.84L320.43 118.92C324.03 121.48 327.79 123.44 331.71 124.8C335.63 126.16 339.63 126.84 343.71 126.84C348.35 126.84 351.95 125.76 354.51 123.6C357.15 121.36 358.47 118.32 358.47 114.48C358.47 110.64 357.23 107.56 354.75 105.24C352.27 102.92 348.87 101.76 344.55 101.76C341.51 101.76 338.67 102.32 336.03 103.44C333.47 104.56 331.15 106.28 329.07 108.6H317.07V56.4H371.07V71.64H334.71V94.56H330.39C332.39 92.08 335.03 90.16 338.31 88.8C341.59 87.44 345.27 86.76 349.35 86.76C354.79 86.76 359.51 87.92 363.51 90.24C367.59 92.48 370.75 95.64 372.99 99.72C375.23 103.72 376.35 108.44 376.35 113.88C376.35 119.48 375.03 124.44 372.39 128.76C369.83 133 366.11 136.32 361.23 138.72C356.43 141.12 350.71 142.32 344.07 142.32ZM416.023 142.32C405.863 142.32 398.023 138.52 392.503 130.92C387.063 123.24 384.343 112.44 384.343 98.52C384.343 84.36 387.063 73.6 392.503 66.24C398.023 58.8 405.863 55.08 416.023 55.08C426.263 55.08 434.103 58.8 439.543 66.24C444.983 73.6 447.703 84.32 447.703 98.4C447.703 112.4 444.983 123.24 439.543 130.92C434.103 138.52 426.263 142.32 416.023 142.32ZM416.023 127.2C420.663 127.2 424.103 124.92 426.343 120.36C428.663 115.72 429.823 108.4 429.823 98.4C429.823 88.4 428.663 81.2 426.343 76.8C424.103 72.4 420.663 70.2 416.023 70.2C411.383 70.2 407.903 72.4 405.583 76.8C403.343 81.2 402.223 88.36 402.223 98.28C402.223 108.36 403.383 115.72 405.703 120.36C408.023 124.92 411.463 127.2 416.023 127.2ZM487.977 142.32C477.817 142.32 469.977 138.52 464.457 130.92C459.017 123.24 456.297 112.44 456.297 98.52C456.297 84.36 459.017 73.6 464.457 66.24C469.977 58.8 477.817 55.08 487.977 55.08C498.217 55.08 506.057 58.8 511.497 66.24C516.937 73.6 519.657 84.32 519.657 98.4C519.657 112.4 516.937 123.24 511.497 130.92C506.057 138.52 498.217 142.32 487.977 142.32ZM487.977 127.2C492.617 127.2 496.057 124.92 498.297 120.36C500.617 115.72 501.777 108.4 501.777 98.4C501.777 88.4 500.617 81.2 498.297 76.8C496.057 72.4 492.617 70.2 487.977 70.2C483.337 70.2 479.857 72.4 477.537 76.8C475.297 81.2 474.177 88.36 474.177 98.28C474.177 108.36 475.337 115.72 477.657 120.36C479.977 124.92 483.417 127.2 487.977 127.2Z"
      fill='#191B1F'
    />
    <path
      d="M231.432 90.0506C234.432 88.7369 240.973 85.4181 245.855 79.6724C246.594 78.8012 247.708 78.3241 248.855 78.3241H259.78C261.64 78.3241 263.147 76.8168 263.147 74.9569V72.855C263.147 72.0668 263.783 71.4307 264.571 71.4307H271.174C274.099 71.4307 276.471 73.8022 276.471 76.7269C276.471 77.9715 277.48 78.981 278.725 78.981H287.865C289.449 78.981 290.728 80.2601 290.728 81.8434V82.2652C290.728 83.8486 289.449 85.1277 287.865 85.1277H276.104V107.626H287.865C289.449 107.626 290.728 108.906 290.728 110.489C290.728 112.072 289.449 113.351 287.865 113.351H278.538C277.293 113.351 276.284 114.361 276.284 115.605V116.069C276.284 118.993 273.912 121.365 270.988 121.365H265.131C264.343 121.365 263.707 120.729 263.707 119.941V118.862C263.707 117.002 262.2 115.495 260.34 115.495H247.604C246.318 115.495 245.122 114.879 244.361 113.849C242.591 111.45 238.553 106.97 231.501 104.19C230.471 103.782 229.793 102.78 229.793 101.666V92.5535C229.793 91.468 230.436 90.4931 231.432 90.0575V90.0506Z"
      fill='#191B1F'
    />
    <path
      d="M218.482 93.0459H230.458V100.776H218.482C216.346 100.776 214.617 99.0405 214.617 96.9109C214.617 94.7745 216.353 93.0459 218.482 93.0459Z"
      fill='#191B1F'
    />
    <path
      d="M222.533 96.9133C222.533 96.9133 214.236 96.1527 196.549 96.9133C172.439 97.9435 151.718 115.837 152.471 142.215C153.225 168.593 192.961 164.631 188.639 134.119C184.318 103.606 150.943 97.5909 125.347 96.9202C83.5436 95.8278 73.1654 120.366 79.1946 133.683C85.2238 147 110.779 144.925 114.796 125.082C118.813 105.238 111.311 77.2424 89.2409 73.4051C64.6886 69.1321 56.9655 89.4806 15.1484 86.2171"
      stroke='#191B1F'
      stroke-width='2.07426'
      stroke-linecap='round'
      stroke-linejoin='round'
    />
    <path
      d='M558.14 126.828C567.614 126.828 575.295 113.205 575.295 96.3991C575.295 79.5934 567.614 65.9697 558.14 65.9697C548.666 65.9697 540.986 79.5934 540.986 96.3991C540.986 113.205 548.666 126.828 558.14 126.828Z'
      stroke='#191B1F'
      stroke-width='2.07426'
      stroke-linecap='round'
      stroke-linejoin='round'
    />
    <path
      d='M558.058 89.5063C560.07 89.5063 561.702 86.9679 561.702 83.8366C561.702 80.7054 560.07 78.167 558.058 78.167C556.045 78.167 554.414 80.7054 554.414 83.8366C554.414 86.9679 556.045 89.5063 558.058 89.5063Z'
      fill='#191B1F'
    />
    <path
      d='M558.058 115.51C560.07 115.51 561.702 112.972 561.702 109.841C561.702 106.709 560.07 104.171 558.058 104.171C556.045 104.171 554.414 106.709 554.414 109.841C554.414 112.972 556.045 115.51 558.058 115.51Z'
      fill='#191B1F'
    />
    <path
      d='M626.204 96.3991C626.204 102.311 621.419 107.102 615.508 107.102H613.233C611.069 107.102 609.001 107.738 607.259 108.865C605.517 109.999 604.092 111.624 603.214 113.602C599.633 121.65 591.647 126.835 582.838 126.835H558.141C567.613 126.835 575.295 113.207 575.295 96.3991C575.295 79.5907 567.613 65.9697 558.141 65.9697H582.838C591.647 65.9697 599.633 71.1554 603.214 79.2035C604.977 83.1584 608.905 85.7028 613.233 85.7028H615.508C618.46 85.7028 621.136 86.899 623.072 88.835C625.008 90.7709 626.204 93.4467 626.204 96.3991V96.3991Z'
      fill='#191B1F'
    />
    <path
      d='M558.14 126.828C567.614 126.828 575.295 113.205 575.295 96.3991C575.295 79.5934 567.614 65.9697 558.14 65.9697C548.666 65.9697 540.986 79.5934 540.986 96.3991C540.986 113.205 548.666 126.828 558.14 126.828Z'
      stroke='#191B1F'
      stroke-width='2.07426'
      stroke-linecap='round'
      stroke-linejoin='round'
    />
    <path
      d='M611.904 97.8C611.904 97.8 620.201 97.0395 637.888 97.8C661.998 98.8302 682.719 116.724 681.966 143.102C681.212 169.473 641.476 165.518 645.798 135.005C650.119 104.493 683.494 98.4776 709.09 97.8069C750.893 96.7145 761.272 121.253 755.242 134.57C749.213 147.88 723.658 145.812 719.641 125.968C715.624 106.125 723.126 78.1292 745.196 74.2918C769.748 70.0188 777.471 90.3673 819.289 87.1038'
      stroke='#191B1F'
      stroke-width='2.07426'
      stroke-linecap='round'
      stroke-linejoin='round'
    />
   <path
      d='M299.391 32.5831C300.154 32.5831 300.773 31.9639 300.773 31.2002C300.773 30.4365 300.154 29.8174 299.391 29.8174C298.627 29.8174 298.008 30.4365 298.008 31.2002C298.008 31.9639 298.627 32.5831 299.391 32.5831Z'
      fill='#191B1F'
    />
    <path
      d='M537.883 168.834C538.498 168.834 538.996 168.335 538.996 167.721C538.996 167.106 538.498 166.607 537.883 166.607C537.268 166.607 536.77 167.106 536.77 167.721C536.77 168.335 537.268 168.834 537.883 168.834Z'
      fill='#191B1F'
    />
    <path
      d='M725.914 38.8946C727.632 38.8946 729.026 37.5016 729.026 35.7833C729.026 34.0649 727.632 32.6719 725.914 32.6719C724.196 32.6719 722.803 34.0649 722.803 35.7833C722.803 37.5016 724.196 38.8946 725.914 38.8946Z'
      fill='#191B1F'
    />
    <path
      d='M41.0489 124.48C42.7673 124.48 44.1603 123.087 44.1603 121.368C44.1603 119.65 42.7673 118.257 41.0489 118.257C39.3305 118.257 37.9375 119.65 37.9375 121.368C37.9375 123.087 39.3305 124.48 41.0489 124.48Z'
      fill='#191B1F'
    />
    <path
      d='M34.8334 129.881C35.7078 129.881 36.4167 129.172 36.4167 128.297C36.4167 127.423 35.7078 126.714 34.8334 126.714C33.9589 126.714 33.25 127.423 33.25 128.297C33.25 129.172 33.9589 129.881 34.8334 129.881Z'
      fill='#191B1F'
    />
  </g>
  <defs>
    <clip-path id='clip0_2908_17481'>
      <rect width='838' height='167' fill='transparent' />
    </clip-path>
  </defs>
</svg>