<svg width="16" height="16" viewBox="0 0 24 24" fill="none" xmlns="http://www.w3.org/2000/svg">
<path fill-rule="evenodd" clip-rule="evenodd" d="M12 21C16.9706 21 21 16.9706 21 12C21 7.02944 16.9706 3 12 3C7.02944 3 3 7.02944 3 12C3 16.9706 7.02944 21 12 21ZM16.2803 10.2803C16.5732 9.98744 16.5732 9.51256 16.2803 9.21967C15.9874 8.92678 15.5126 8.92678 15.2197 9.21967L10.5 13.9393L8.78033 12.2197C8.48744 11.9268 8.01256 11.9268 7.71967 12.2197C7.42678 12.5126 7.42678 12.9874 7.71967 13.2803L9.96967 15.5303C10.2626 15.8232 10.7374 15.8232 11.0303 15.5303L16.2803 10.2803Z" fill="#15AD61"/>
</svg>
